<?xml version="1.0" encoding="UTF-8"?>
<svg id="Calque_1" data-name="Calque 1" xmlns="http://www.w3.org/2000/svg" version="1.1" viewBox="0 0 24 24">
  <defs>
    <style>
      .cls-1 {
        fill-rule: evenodd;
      }

      .cls-1, .cls-2 {
        fill: #fff;
        stroke-width: 0px;
      }
    </style>
  </defs>
  <path class="cls-1" d="M11.4,2h1.1c5.2,0,9.4,4.2,9.4,9.4v1.1c0,5.2-4.2,9.4-9.4,9.4h-1.1c-5.2,0-9.4-4.2-9.4-9.4v-1.1C2,6.2,6.2,2,11.4,2ZM12.6,20.5c4.4,0,7.9-3.6,7.9-7.9v-1.1c0-4.4-3.6-7.9-7.9-7.9h-1.1c-4.4,0-7.9,3.6-7.9,7.9v1.1c0,4.4,3.6,7.9,7.9,7.9h1.1Z"/>
  <path class="cls-2" d="M16,11.2h-3.2v-3.2c0-.4-.3-.8-.8-.8s-.8.3-.8.8v3.2h-3.2c-.4,0-.8.3-.8.8s.3.8.8.8h3.2v3.2c0,.4.3.8.8.8s.8-.3.8-.8v-3.2h3.2c.4,0,.8-.3.8-.8s-.3-.8-.8-.8Z"/>
</svg>