<svg width="314" height="166" viewBox="0 0 314 166" fill="none" xmlns="http://www.w3.org/2000/svg">
<path d="M148.496 107.226C124.642 113.863 125.425 113.326 124.538 114.05C120.238 115.289 117.643 114.763 116.316 117.259C115.97 117.237 115.668 117.193 115.471 117.149C113.261 114.587 107.452 111.483 106.635 111.061C104.183 110.611 100.371 105.97 94.2219 108.867C94.2055 108.872 93.7941 109.031 93.1524 109.272C89.0112 107.495 84.9357 106.996 84.5518 106.969C79.7085 107.205 68.1131 115.432 65.733 117.16C65.3546 117.176 64.9377 117.154 64.5318 117.144C63.3251 115.416 61.6961 115.514 60.3029 114.977C59.321 112.722 58.789 113.902 35.2313 107.281C32.9057 106.656 30.6074 108.433 30.6349 110.858L30.783 142.408C30.783 143.977 31.8032 145.386 33.3171 145.88L48.7251 150.976C50.2116 151.469 51.8351 150.586 52.1972 149.067L53.2174 145.074L56.13 145.831C58.3568 146.418 60.6771 144.975 61.0995 142.655L61.1214 142.54C61.6041 142.578 62.0484 142.633 62.4269 142.715C58.4831 147.827 61.0337 152.012 65.0378 151.886C64.5332 154.311 67.199 156.477 69.7769 156.208C69.2119 158.622 72.0587 161.655 75.4923 161.15C74.8889 165.187 82.5515 168.434 88.064 161.819C89.0074 162.17 89.6328 162.401 89.6382 162.401C92.3917 163.789 95.8309 162.116 96.363 160.24C98.3156 161.221 101.64 162.302 104.02 159.971C104.377 159.598 105.671 158.995 105.912 157.53C108.013 158.133 109.231 157.376 109.198 157.376C111.381 156.455 114.338 154.08 114.058 151.809C118.21 151.71 120.793 146.593 120.13 143.198C120.217 143.176 120.305 143.159 120.393 143.137C121.495 147.514 126.235 145.902 130.952 145.732L131.906 149.489C132.323 151.135 134.073 152.1 135.718 151.552L150.451 146.642C151.964 146.149 152.957 144.734 152.985 143.17L153.171 110.776C153.171 108.346 150.846 106.574 148.498 107.227L148.496 107.226ZM44.1756 139.088C42.0583 139.088 40.3635 137.366 40.3635 135.249C40.3635 133.132 42.0583 131.437 44.1756 131.437C46.2928 131.437 48.0151 133.137 48.0151 135.249C48.0151 137.366 46.2928 139.088 44.1756 139.088ZM61.0481 128.338C58.4481 139.686 59.4026 143.997 56.7862 143.301L53.8627 142.544L60.2253 117.674L61.624 118.08C63.7302 118.689 61.9257 121.405 61.0481 128.338ZM64.8767 143.839C65.0193 143.97 64.6848 143.625 66.3247 145.407L68.3213 147.596C64.213 151.167 60.7958 148.55 64.8767 143.839ZM68.0361 153.092C68.0361 153.092 67.729 152.878 67.537 152.51C67.5589 152.434 67.526 152.549 67.6138 152.253C68.3762 151.989 69.6049 150.909 70.5208 150.02L72.4899 152.176C71.19 153.13 69.21 154.216 68.0361 153.092ZM73.0056 157.886C73.0002 157.88 72.4681 157.529 72.2816 156.893C72.1171 156.344 72.0951 157.299 74.9528 154.869C77.2784 157.365 77.0262 157.266 77.4484 157.441C77.4923 157.485 77.5417 157.524 77.591 157.568C74.6949 159.372 73.8557 158.429 73.0056 157.886ZM78.0135 161.627C78.2768 161.506 80.2185 159.509 80.6463 159.043C80.9151 159.147 82.6374 159.795 85.4403 160.842C83.0981 163.234 79.5987 163.98 78.0135 161.627ZM112.959 149.022C105.889 145.95 105.258 144.716 97.6453 140.531C96.2411 139.758 94.3323 142.028 95.9065 143.054C100.174 145.852 107.858 150.733 111.439 152.214C110.77 153.41 109.673 154.337 108.017 155.05C107.984 155.066 107.271 155.417 105.79 154.688C104.265 153.936 95.681 148.742 90.9253 145.862C89.938 145.264 89.3347 146.12 89.0768 146.246C86.9212 147.936 91.1667 149.417 103.3 157.189C102.905 157.562 102.515 157.847 102.345 157.984C100.272 160.003 96.3338 157.211 96.1856 157.112C85.797 151.517 84.9358 149.554 83.3561 150.744L83.1477 150.903C80.9537 152.538 85.3691 154.205 93.7777 159.641C91.4631 160.705 93.1908 160.974 82.5553 156.981C78.2659 155.363 79.4068 155.423 78.6773 155.083C78.436 154.814 67.5427 142.895 68.0034 143.4C66.8789 142.61 66.6705 140.476 61.6078 139.961C61.6626 139.664 65.2169 120.066 65.2443 119.787C65.8861 119.704 66.4401 119.885 66.9721 119.496C70.6526 116.797 81.0139 109.766 84.464 109.579C84.4914 109.585 86.5921 109.831 89.2195 110.621C85.6816 111.718 80.8218 111.921 79.4671 115.267C77.0426 120.286 75.2271 119.118 72.5011 124.158C69.8518 130.038 82.5004 133.785 89.0549 124.427C90.3384 124.246 91.9455 123.736 93.1357 123.226C93.1412 123.248 93.1467 123.27 93.1522 123.286C94.0353 125.634 93.9749 129.117 97.5402 131.53C100.842 133.774 113.688 142.522 117.561 143.575C118.098 145.89 115.789 150.201 112.959 149.022ZM118.713 140.893C102.467 130.455 98.896 129.243 96.1971 122.99C98.7586 121.827 99.9928 118.706 99.8172 118.997C100.064 118.229 99.9379 118.558 99.9982 118.289C99.1316 113.66 95.506 121.235 88.1724 121.871C86.6586 121.997 84.8211 128.02 78.0744 127.394C73.9497 126.999 75.0632 125.557 74.8437 125.299C77.2297 121.004 79.2922 121.64 81.8372 116.358C83.0604 113.868 85.781 115.003 95.2263 111.274C100.525 109.03 102.406 112.771 105.549 113.435C114.989 118.421 113.075 120.829 118.34 119.726C119.465 121.904 121.291 131.453 122.537 140.196C121.429 140.289 119.931 140.498 118.713 140.893ZM123.013 142.78C124.072 142.692 124.544 142.818 125.015 142.264C125.783 141.365 122.591 120.994 120.079 117.703L123.633 116.918L130.303 143.164C124.653 143.542 123.567 143.976 123.013 142.78ZM136.847 139.088C135.234 139.088 133.868 138.085 133.309 136.67L133.079 135.721C133.062 135.567 133.029 135.413 133.029 135.249C133.029 133.132 134.724 131.437 136.841 131.437C138.958 131.437 140.681 133.137 140.681 135.249C140.686 137.366 138.964 139.088 136.847 139.088Z" fill="#21652D"/>
<path d="M259.387 38.0435C236.75 18.5417 209.018 5.90622 179.448 1.62198C149.878 -2.66226 119.699 1.58272 92.4588 13.8581C65.2183 26.1334 42.0474 45.9291 25.6692 70.9188C9.291 95.9086 0.385947 125.054 0.000517386 154.93C-0.0178533 156.177 0.453622 157.38 1.31356 158.283C2.17351 159.185 3.35324 159.714 4.59908 159.756C5.84493 159.798 7.05739 159.349 7.97575 158.506C8.89412 157.663 9.44504 156.493 9.51007 155.248C10.2233 142.047 17.4793 76.1933 90.3612 76.1933C121.053 76.1933 143.657 87.5846 157.539 110.045C165.889 124.368 170.598 140.522 171.252 157.089C171.254 158.349 171.757 159.558 172.649 160.449C173.541 161.34 174.749 161.841 176.01 161.842H309.242C310.504 161.842 311.714 161.341 312.606 160.449C313.499 159.556 314 158.346 314 157.084C314 134.48 309.12 112.143 299.695 91.5989C290.269 71.0544 276.52 52.7866 259.387 38.0435ZM23.9893 92.996C37.279 65.4763 58.8156 42.783 85.6029 28.0729V66.8919C56.1097 67.9935 36.6552 78.9459 23.9893 92.996ZM95.1195 66.7952V23.1599C119.857 11.7421 147.273 7.39608 174.33 10.6035C201.386 13.8109 227.026 24.4465 248.408 41.3318L162.864 100.867C147.907 79.6142 124.648 67.9256 95.1195 66.7952ZM180.543 152.326C179.305 137.169 174.981 122.425 167.838 108.999L255.891 47.7192C270.589 61.0036 282.459 77.1127 290.795 95.0851C299.13 113.058 303.76 132.525 304.407 152.326H180.543Z" fill="#21652D"/>
</svg>
