<svg width="251" height="49" viewBox="0 0 251 49" fill="none" xmlns="http://www.w3.org/2000/svg">
<path d="M43.4351 31.363C36.4578 33.3043 36.687 33.147 36.4274 33.3588C35.1696 33.7214 34.4107 33.5674 34.0224 34.2974C33.9213 34.291 33.8331 34.2781 33.7753 34.2653C33.1288 33.5161 31.4298 32.608 31.1907 32.4845C30.4735 32.3529 29.3585 30.9956 27.56 31.8427C27.5552 31.8443 27.4348 31.8908 27.2471 31.9614C26.0358 31.4416 24.8438 31.2956 24.7315 31.2876C23.3148 31.3566 19.9231 33.7631 19.227 34.2685C19.1163 34.2733 18.9943 34.2669 18.8756 34.2637C18.5227 33.7583 18.0462 33.7872 17.6386 33.63C17.3515 32.9706 17.1958 33.3155 10.3052 31.379C9.62498 31.1961 8.95271 31.7159 8.96076 32.4251L9.00408 41.6536C9.00408 42.1124 9.3025 42.5248 9.74531 42.6692L14.2522 44.1596C14.6869 44.304 15.1618 44.0457 15.2677 43.6013L15.5662 42.4333L16.4181 42.6547C17.0694 42.8264 17.7481 42.4044 17.8717 41.7258L17.8781 41.6921C18.0193 41.7033 18.1492 41.7193 18.2599 41.7434C17.1064 43.2387 17.8524 44.4628 19.0236 44.4259C18.876 45.1351 19.6558 45.7688 20.4098 45.6902C20.2446 46.3961 21.0772 47.2833 22.0816 47.1357C21.9051 48.3165 24.1464 49.2663 25.7588 47.3314C26.0347 47.4341 26.2176 47.5015 26.2192 47.5015C27.0246 47.9074 28.0306 47.4181 28.1862 46.8693C28.7574 47.1565 29.7296 47.4726 30.4259 46.7907C30.5302 46.6816 30.9089 46.5051 30.9795 46.0768C31.5939 46.2533 31.9501 46.0318 31.9405 46.0318C32.579 45.7623 33.4438 45.0676 33.3619 44.4034C34.5764 44.3745 35.3321 42.8777 35.138 41.8845C35.1636 41.8781 35.1893 41.8733 35.215 41.8669C35.5375 43.1472 36.9237 42.6755 38.3034 42.6258L38.5826 43.7248C38.7045 44.2061 39.2163 44.4885 39.6976 44.3281L44.0069 42.8921C44.4497 42.7477 44.7401 42.3338 44.7481 41.8766L44.8027 32.4012C44.8027 31.6905 44.1224 31.1723 43.4357 31.3632L43.4351 31.363ZM12.9214 40.6826C12.3021 40.6826 11.8064 40.1788 11.8064 39.5595C11.8064 38.9403 12.3021 38.4445 12.9214 38.4445C13.5407 38.4445 14.0445 38.9419 14.0445 39.5595C14.0445 40.1788 13.5407 40.6826 12.9214 40.6826ZM17.8566 37.5381C17.0961 40.8575 17.3753 42.1184 16.61 41.9147L15.7549 41.6933L17.616 34.419L18.0251 34.5377C18.6412 34.7158 18.1133 35.5101 17.8566 37.5381ZM18.9765 42.072C19.0182 42.1105 18.9204 42.0094 19.4 42.5309L19.9841 43.171C18.7824 44.2155 17.7828 43.4502 18.9765 42.072ZM19.9006 44.7786C19.9006 44.7786 19.8108 44.716 19.7546 44.6085C19.7611 44.5861 19.7514 44.6197 19.7771 44.5331C20.0001 44.4561 20.3595 44.14 20.6274 43.8802L21.2034 44.5107C20.8231 44.7899 20.244 45.1075 19.9006 44.7786ZM21.3542 46.1808C21.3526 46.1792 21.197 46.0765 21.1424 45.8904C21.0943 45.73 21.0879 46.0092 21.9238 45.2984C22.604 46.0284 22.5302 45.9995 22.6537 46.0509C22.6666 46.0637 22.681 46.0749 22.6954 46.0878C21.8483 46.6156 21.6029 46.3397 21.3542 46.1808ZM22.819 47.275C22.896 47.2397 23.464 46.6557 23.5891 46.5194C23.6677 46.5499 24.1715 46.7392 24.9914 47.0456C24.3063 47.7451 23.2827 47.9633 22.819 47.275ZM33.0406 43.5881C30.9726 42.6897 30.7881 42.3287 28.5613 41.1046C28.1506 40.8783 27.5922 41.5426 28.0527 41.8426C29.3009 42.6608 31.5486 44.0887 32.5961 44.5219C32.4004 44.8716 32.0795 45.1428 31.595 45.3513C31.5853 45.3561 31.3768 45.4588 30.9436 45.2454C30.4976 45.0256 27.9867 43.5063 26.5957 42.664C26.3069 42.4891 26.1305 42.7394 26.055 42.7763C25.4245 43.2704 26.6663 43.7036 30.2152 45.977C30.0997 46.0861 29.9858 46.1696 29.9361 46.2097C29.3296 46.8001 28.1777 45.9835 28.1344 45.9546C25.0957 44.3181 24.8438 43.7437 24.3817 44.0919L24.3208 44.1384C23.679 44.6165 24.9705 45.1043 27.43 46.6942C26.753 47.0054 27.2584 47.0841 24.1475 45.9161C22.8928 45.4428 23.2266 45.4604 23.0132 45.361C22.9426 45.2823 19.7563 41.796 19.8911 41.9436C19.5622 41.7126 19.5012 41.0885 18.0203 40.9377C18.0364 40.8511 19.076 35.1186 19.084 35.0369C19.2717 35.0128 19.4338 35.0657 19.5894 34.9518C20.666 34.1625 23.6966 32.1057 24.7058 32.0511C24.7138 32.0527 25.3283 32.1249 26.0968 32.3559C25.0619 32.6768 23.6404 32.7362 23.2442 33.7149C22.535 35.1829 22.004 34.8411 21.2066 36.3155C20.4317 38.0354 24.1314 39.1312 26.0486 36.3942C26.424 36.3412 26.8941 36.192 27.2423 36.0428C27.2439 36.0492 27.2455 36.0556 27.2471 36.0605C27.5054 36.7471 27.4877 37.7659 28.5306 38.4718C29.4964 39.128 33.2539 41.687 34.3866 41.995C34.5439 42.6721 33.8685 43.9331 33.0406 43.5881ZM34.7236 41.2104C29.9716 38.1573 28.9271 37.8027 28.1377 35.9737C28.887 35.6336 29.2479 34.7207 29.1966 34.8057C29.2688 34.5811 29.2319 34.6774 29.2496 34.5988C28.9961 33.2447 27.9356 35.4603 25.7905 35.6464C25.3477 35.6833 24.8102 37.4449 22.8368 37.2621C21.6303 37.1465 21.956 36.7246 21.8919 36.6492C22.5898 35.3929 23.193 35.579 23.9375 34.034C24.2952 33.3057 25.091 33.6378 27.8538 32.5468C29.4036 31.8906 29.9539 32.9848 30.8732 33.1789C33.6344 34.6373 33.0744 35.3416 34.6146 35.0191C34.9435 35.6561 35.4778 38.4493 35.842 41.0066C35.5179 41.0339 35.0798 41.0949 34.7236 41.2104ZM35.9815 41.7624C36.2911 41.7367 36.4291 41.7736 36.5671 41.6116C36.7917 41.3484 35.8579 35.39 35.1232 34.4272L36.1628 34.1978L38.1137 41.8746C36.4612 41.9853 36.1435 42.1121 35.9815 41.7624ZM40.0277 40.6826C39.5561 40.6826 39.1566 40.389 38.9929 39.9751L38.9255 39.6975C38.9207 39.6526 38.9111 39.6077 38.9111 39.5595C38.9111 38.9403 39.4068 38.4445 40.0261 38.4445C40.6454 38.4445 41.1492 38.9419 41.1492 39.5595C41.1508 40.1788 40.647 40.6826 40.0277 40.6826Z" fill="#21652D"/>
<path d="M75.8707 11.1277C69.2495 5.42344 61.1376 1.72757 52.4885 0.474428C43.8393 -0.778713 35.0121 0.462945 27.0442 4.05349C19.0763 7.64403 12.2989 13.4343 7.50825 20.7438C2.71762 28.0533 0.112889 36.5783 0.000151336 45.3171C-0.00522209 45.6817 0.132685 46.0338 0.384218 46.2978C0.635751 46.5617 0.980822 46.7164 1.34523 46.7286C1.70964 46.7408 2.06429 46.6095 2.33291 46.363C2.60153 46.1164 2.76268 45.7743 2.7817 45.4102C2.99033 41.5488 5.11269 22.2866 26.4307 22.2866C35.408 22.2866 42.0197 25.6185 46.0802 32.1881C48.5227 36.3778 49.8999 41.1027 50.0912 45.9485C50.0919 46.3172 50.2389 46.6706 50.4998 46.9313C50.7606 47.1919 51.1142 47.3385 51.483 47.3389H90.4532C90.8224 47.3389 91.1764 47.1922 91.4374 46.9312C91.6984 46.6702 91.845 46.3162 91.845 45.9471C91.8449 39.3356 90.4177 32.802 87.6608 26.7927C84.9038 20.7834 80.8822 15.4401 75.8707 11.1277ZM7.01689 27.2013C10.9041 19.1518 17.2036 12.514 25.0389 8.21133V19.5659C16.4121 19.8881 10.7217 23.0917 7.01689 27.2013ZM27.8225 19.5376V6.77428C35.0583 3.43456 43.0775 2.16336 50.9914 3.10153C58.9054 4.0397 66.4051 7.15061 72.6595 12.0896L47.6376 29.5035C43.2629 23.2872 36.4596 19.8682 27.8225 19.5376ZM52.8089 44.5553C52.4467 40.1219 51.1821 35.8093 49.0927 31.8823L74.8482 13.9579C79.1472 17.8436 82.6193 22.5555 85.0574 27.8124C87.4956 33.0693 88.8497 38.7636 89.039 44.5553H52.8089Z" fill="#21652D"/>
<path d="M117.786 15.0432H124.397C125.887 15.0432 127.024 15.1572 127.806 15.3853C128.856 15.6948 129.757 16.2447 130.506 17.0348C131.255 17.825 131.826 18.7944 132.217 19.9429C132.608 21.0834 132.803 22.4926 132.803 24.1707C132.803 25.6451 132.62 26.9159 132.253 27.983C131.805 29.2863 131.166 30.3412 130.335 31.1477C129.708 31.7586 128.861 32.2351 127.793 32.5773C126.995 32.8298 125.928 32.9561 124.592 32.9561H117.786V15.0432ZM121.403 18.0735V29.938H124.103C125.113 29.938 125.842 29.881 126.291 29.7669C126.877 29.6203 127.362 29.3718 127.745 29.0216C128.136 28.6713 128.453 28.097 128.698 27.2987C128.942 26.4923 129.064 25.3966 129.064 24.0118C129.064 22.627 128.942 21.564 128.698 20.8227C128.453 20.0814 128.111 19.5031 127.671 19.0876C127.231 18.6722 126.673 18.3911 125.997 18.2445C125.492 18.1305 124.502 18.0735 123.028 18.0735H121.403ZM135.882 32.9561V15.0432H149.164V18.0735H139.499V22.0446H148.492V25.0627H139.499V29.938H149.506V32.9561H135.882ZM168.727 32.9561H164.792L163.228 28.8872H156.068L154.589 32.9561H150.753L157.73 15.0432H161.554L168.727 32.9561ZM162.067 25.8691L159.599 19.222L157.18 25.8691H162.067ZM170.755 32.9561V15.1898H174.372V29.938H183.365V32.9561H170.755ZM185.259 27.201L187.495 27.0055C187.601 27.9015 187.845 28.6387 188.228 29.2171C188.619 29.7873 189.222 30.2516 190.036 30.61C190.851 30.9603 191.767 31.1354 192.786 31.1354C193.69 31.1354 194.488 31.001 195.181 30.7322C195.873 30.4634 196.386 30.0968 196.72 29.6325C197.062 29.1601 197.233 28.6469 197.233 28.0929C197.233 27.5309 197.07 27.0421 196.745 26.6267C196.419 26.2031 195.881 25.8487 195.132 25.5636C194.651 25.3763 193.588 25.0871 191.943 24.6961C190.297 24.2969 189.144 23.9222 188.485 23.5719C187.629 23.1239 186.99 22.57 186.566 21.9102C186.151 21.2422 185.943 20.4969 185.943 19.6741C185.943 18.7699 186.2 17.9268 186.713 17.1448C187.226 16.3547 187.976 15.7559 188.961 15.3486C189.947 14.9413 191.042 14.7377 192.248 14.7377C193.576 14.7377 194.745 14.9536 195.755 15.3853C196.773 15.8089 197.555 16.4361 198.101 17.267C198.647 18.0979 198.94 19.0387 198.981 20.0896L196.708 20.2606C196.586 19.1283 196.17 18.273 195.462 17.6947C194.761 17.1163 193.722 16.8271 192.346 16.8271C190.912 16.8271 189.865 17.0919 189.206 17.6214C188.554 18.1427 188.228 18.774 188.228 19.5153C188.228 20.1588 188.46 20.6883 188.925 21.1037C189.381 21.5192 190.57 21.9468 192.492 22.3867C194.423 22.8185 195.747 23.1972 196.464 23.5231C197.506 24.0037 198.276 24.6146 198.773 25.3559C199.27 26.089 199.518 26.9362 199.518 27.8974C199.518 28.8505 199.245 29.7506 198.7 30.5978C198.154 31.4368 197.368 32.0926 196.341 32.5651C195.323 33.0294 194.175 33.2615 192.896 33.2615C191.275 33.2615 189.914 33.0253 188.815 32.5528C187.723 32.0804 186.864 31.3717 186.236 30.4267C185.617 29.4737 185.291 28.3984 185.259 27.201ZM210.943 28.2029L213.106 28.4839C212.869 29.9746 212.263 31.1436 211.285 31.9908C210.316 32.8298 209.122 33.2493 207.705 33.2493C205.929 33.2493 204.5 32.6709 203.416 31.5142C202.341 30.3494 201.803 28.6835 201.803 26.5167C201.803 25.1156 202.035 23.8896 202.5 22.8388C202.964 21.788 203.669 21.0019 204.614 20.4806C205.567 19.9511 206.601 19.6863 207.717 19.6863C209.126 19.6863 210.279 20.0448 211.175 20.7616C212.071 21.4703 212.645 22.4804 212.898 23.7919L210.76 24.1218C210.556 23.2502 210.194 22.5944 209.672 22.1546C209.159 21.7147 208.536 21.4947 207.803 21.4947C206.695 21.4947 205.795 21.8939 205.102 22.6922C204.41 23.4823 204.064 24.7368 204.064 26.4556C204.064 28.1988 204.398 29.4655 205.066 30.2557C205.734 31.0458 206.605 31.4409 207.681 31.4409C208.544 31.4409 209.265 31.1762 209.843 30.6467C210.422 30.1172 210.788 29.3026 210.943 28.2029ZM214.169 26.4678C214.169 24.0648 214.837 22.2849 216.173 21.1282C217.289 20.167 218.649 19.6863 220.254 19.6863C222.038 19.6863 223.496 20.2728 224.628 21.4459C225.76 22.6107 226.327 24.2236 226.327 26.2845C226.327 27.9545 226.074 29.27 225.569 30.2312C225.072 31.1843 224.343 31.9256 223.382 32.4551C222.429 32.9846 221.386 33.2493 220.254 33.2493C218.437 33.2493 216.967 32.6669 215.843 31.502C214.727 30.3371 214.169 28.6591 214.169 26.4678ZM216.429 26.4678C216.429 28.1296 216.792 29.3759 217.517 30.2068C218.242 31.0295 219.154 31.4409 220.254 31.4409C221.345 31.4409 222.254 31.0255 222.979 30.1946C223.704 29.3637 224.066 28.097 224.066 26.3945C224.066 24.7898 223.699 23.576 222.966 22.7533C222.241 21.9224 221.337 21.507 220.254 21.507C219.154 21.507 218.242 21.9183 217.517 22.7411C216.792 23.5638 216.429 24.8061 216.429 26.4678ZM228.893 32.9561V19.9796H230.872V21.9468C231.377 21.0263 231.841 20.4195 232.265 20.1262C232.697 19.833 233.169 19.6863 233.682 19.6863C234.424 19.6863 235.177 19.9226 235.943 20.395L235.185 22.4356C234.648 22.1179 234.11 21.9591 233.572 21.9591C233.092 21.9591 232.66 22.1057 232.277 22.3989C231.894 22.684 231.621 23.0832 231.458 23.5964C231.214 24.3784 231.092 25.2337 231.092 26.1624V32.9561H228.893ZM246.133 28.7772L248.406 29.0582C248.048 30.386 247.384 31.4165 246.414 32.1496C245.445 32.8827 244.207 33.2493 242.7 33.2493C240.802 33.2493 239.295 32.6669 238.179 31.502C237.071 30.329 236.517 28.6876 236.517 26.5778C236.517 24.3947 237.079 22.7003 238.203 21.4947C239.327 20.2891 240.786 19.6863 242.578 19.6863C244.313 19.6863 245.73 20.2769 246.83 21.4581C247.93 22.6392 248.479 24.301 248.479 26.4434C248.479 26.5737 248.475 26.7692 248.467 27.0299H238.79C238.871 28.4554 239.274 29.547 239.999 30.3046C240.724 31.0621 241.629 31.4409 242.712 31.4409C243.519 31.4409 244.207 31.2291 244.777 30.8055C245.347 30.3819 245.799 29.7058 246.133 28.7772ZM238.912 25.2215H246.158C246.06 24.1299 245.783 23.3113 245.327 22.7655C244.626 21.9183 243.718 21.4947 242.602 21.4947C241.592 21.4947 240.741 21.8328 240.048 22.5089C239.364 23.185 238.985 24.0892 238.912 25.2215Z" fill="#323232"/>
</svg>
