<svg width="24" height="24" viewBox="0 0 24 24" fill="none" xmlns="http://www.w3.org/2000/svg">
<path fill-rule="evenodd" clip-rule="evenodd" d="M14.29 14.0001C15.8597 14.032 17.1896 15.1654 17.47 16.7101L17.7 17.8501C17.9272 18.8341 17.7039 19.8681 17.0909 20.6706C16.4779 21.473 15.539 21.9605 14.53 22.0001H5.24C4.22956 21.9641 3.28834 21.4775 2.67459 20.674C2.06084 19.8705 1.83902 18.8345 2.07 17.8501L2.3 16.7101C2.57603 15.1669 3.90262 14.0328 5.47 14.0001H14.29ZM14.53 20.5001C15.0353 20.4956 15.5107 20.2598 15.82 19.8601C16.2164 19.3816 16.368 18.746 16.23 18.1401L16 17.0001C15.8588 16.1557 15.1454 15.5257 14.29 15.4901H5.47C4.61691 15.5265 3.90679 16.1573 3.77 17.0001L3.59 18.1501C3.45531 18.7529 3.60664 19.384 4 19.8601C4.29834 20.2463 4.75236 20.4807 5.24 20.5001H14.53Z" fill="black"/>
<path fill-rule="evenodd" clip-rule="evenodd" d="M10.38 12.0001H9.38C7.17086 12.0001 5.38 10.2093 5.38 8.00013V5.36013C5.38 3.50446 6.88432 2.00013 8.74 2.00013H11C11.8954 1.99211 12.7567 2.34289 13.3918 2.97417C14.0268 3.60546 14.3827 4.4647 14.38 5.36013V8.00013C14.38 10.2093 12.5891 12.0001 10.38 12.0001ZM8.74 3.50013C7.71275 3.50013 6.88 4.33289 6.88 5.36013V8.00013C6.88536 9.37084 7.98938 10.4838 9.36 10.5001H10.36C11.023 10.5001 11.6589 10.2367 12.1278 9.7679C12.5966 9.29906 12.86 8.66318 12.86 8.00013V5.36013C12.86 4.33289 12.0272 3.50013 11 3.50013H8.74Z" fill="black"/>
<path d="M21.38 6.25013H20V4.88013C20 4.46592 19.6642 4.13013 19.25 4.13013C18.8358 4.13013 18.5 4.46592 18.5 4.88013V6.25013H17.14C16.7258 6.25013 16.39 6.58592 16.39 7.00013C16.39 7.41435 16.7258 7.75013 17.14 7.75013H18.51V9.12013C18.51 9.53435 18.8458 9.87013 19.26 9.87013C19.6742 9.87013 20.01 9.53435 20.01 9.12013V7.75013H21.38C21.7942 7.75013 22.13 7.41435 22.13 7.00013C22.13 6.58592 21.7942 6.25013 21.38 6.25013Z" fill="black"/>
</svg>
