<svg width="24" height="24" viewBox="0 0 24 24" fill="none" xmlns="http://www.w3.org/2000/svg">
<path fill-rule="evenodd" clip-rule="evenodd" d="M16 8.75991C15.9673 10.3933 14.6337 11.7002 13 11.6999C11.3857 11.6733 10.082 10.374 10.05 8.75991V7.62991C10.0498 6.9643 10.3182 6.32677 10.7945 5.8618C11.2708 5.39682 11.9146 5.14374 12.58 5.15991H13.52C14.1768 5.15725 14.8076 5.41631 15.273 5.87981C15.7384 6.34331 16 6.97309 16 7.62991V8.75991ZM12.55 6.62991C11.9977 6.62991 11.55 7.07762 11.55 7.62991L11.59 8.75991C11.59 9.56072 12.2392 10.2099 13.04 10.2099C13.8408 10.2099 14.49 9.56072 14.49 8.75991V7.62991C14.49 7.07762 14.0423 6.62991 13.49 6.62991H12.55Z" fill="black"/>
<path fill-rule="evenodd" clip-rule="evenodd" d="M23.48 15.2999L23.59 16.8599C23.7055 17.3481 23.5927 17.8624 23.2833 18.2574C22.974 18.6524 22.5017 18.8852 22 18.8899H17.51C17.1183 19.3074 16.5725 19.546 16 19.5499H9.99997C9.39856 19.558 8.82282 19.3065 8.41997 18.8599C8.32693 18.8702 8.23302 18.8702 8.13997 18.8599H3.54997C3.06195 18.8415 2.60715 18.6078 2.30799 18.2218C2.00882 17.8358 1.89603 17.3371 1.99997 16.8599L2.14997 15.2999C2.29589 14.5556 2.94158 14.014 3.69997 13.9999H7.99997C8.17946 13.99 8.35923 14.0137 8.52997 14.0699C8.91363 13.5907 9.49612 13.3142 10.11 13.3199H15.89C16.4679 13.3178 17.0185 13.5657 17.4 13.9999C17.4696 13.9901 17.5403 13.9901 17.61 13.9999H21.93C22.6884 14.014 23.3341 14.5556 23.48 15.2999ZM17.55 17.3599H22.08C22.1106 17.301 22.1142 17.2317 22.09 17.1699V16.9699L21.99 15.5499L21.93 15.4699H17.4C16.9772 15.4714 16.5737 15.2933 16.29 14.9799C16.1908 14.8612 16.0447 14.7918 15.89 14.7899H10.11C9.94245 14.7921 9.78468 14.8691 9.67998 14.9999C9.39452 15.3388 8.97305 15.533 8.52998 15.5299C8.34855 15.5307 8.16863 15.4968 7.99998 15.4299H3.74998C3.68998 15.4299 3.68998 15.4499 3.68998 15.5099L3.58998 16.9299V17.1299C3.5626 17.1903 3.5626 17.2595 3.58998 17.3199H8.17998C8.28642 17.3101 8.39354 17.3101 8.49998 17.3199C8.90637 17.3275 9.29094 17.5052 9.55998 17.8099C9.67031 17.939 9.8302 18.0153 9.99998 18.0199H16.04C16.2101 18.0166 16.3704 17.9401 16.48 17.8099C16.7612 17.5214 17.1471 17.3591 17.55 17.3599Z" fill="black"/>
<path fill-rule="evenodd" clip-rule="evenodd" d="M21.97 10.2599C21.97 11.4749 20.985 12.4599 19.77 12.4599C19.1848 12.4626 18.6226 12.232 18.2079 11.8191C17.7931 11.4062 17.56 10.8451 17.56 10.2599V9.41991C17.56 8.92926 17.7549 8.4587 18.1018 8.11176C18.4488 7.76482 18.9193 7.56991 19.41 7.56991H20.12C21.1417 7.56991 21.97 8.39818 21.97 9.41991V10.2599ZM19.1625 9.21242C19.0969 9.27806 19.06 9.36708 19.06 9.45991V10.2999C19.1026 10.657 19.4054 10.9258 19.765 10.9258C20.1246 10.9258 20.4274 10.657 20.47 10.2999V9.45991C20.47 9.26661 20.3133 9.10991 20.12 9.10991H19.41C19.3172 9.10991 19.2281 9.14678 19.1625 9.21242Z" fill="black"/>
<path fill-rule="evenodd" clip-rule="evenodd" d="M7.42208 11.8191C7.00733 12.232 6.44518 12.4626 5.85998 12.4599C5.2765 12.4599 4.71692 12.2281 4.30434 11.8155C3.89176 11.403 3.65998 10.8434 3.65998 10.2599V9.41991C3.65998 8.39818 4.48825 7.56991 5.50998 7.56991H6.21998C7.2417 7.56991 8.06998 8.39818 8.06998 9.41991V10.2599C8.06998 10.8451 7.83682 11.4062 7.42208 11.8191ZM5.50998 9.10991C5.31668 9.10991 5.15998 9.26661 5.15998 9.45991V10.2999C5.20258 10.657 5.50539 10.9258 5.86498 10.9258C6.22456 10.9258 6.52738 10.657 6.56998 10.2999V9.45991C6.56998 9.26661 6.41328 9.10991 6.21998 9.10991H5.50998Z" fill="black"/>
</svg>
