<svg width="24" height="24" viewBox="0 0 24 24" fill="none" xmlns="http://www.w3.org/2000/svg">
<path d="M8.91997 12H8.99997C11.2091 12 13 10.2091 13 7.99996V6.42996C12.9973 5.53269 12.637 4.67352 11.9988 4.04282C11.3606 3.41212 10.4972 3.06197 9.59997 3.06996H8.27997C6.42657 3.07545 4.92546 4.57656 4.91997 6.42996V7.99996C4.91997 10.2091 6.71083 12 8.91997 12Z" fill="black"/>
<path d="M17.5 11.25C19.1568 11.25 20.5 9.90681 20.5 8.24996V7.09996C20.5 5.71597 19.3839 4.59094 18 4.57996H17C15.616 4.59094 14.4999 5.71597 14.5 7.09996V8.24996C14.5 9.90681 15.8431 11.25 17.5 11.25Z" fill="black"/>
<path d="M22.39 15.42L22.23 14.63C22.0408 13.5455 21.1008 12.753 20 12.75H13.9C13.1545 12.7515 12.4596 13.1272 12.05 13.75H4.99997C4.29265 13.7505 3.61252 14.0225 3.09997 14.51C2.6596 14.9135 2.3497 15.4392 2.20997 16.02C2.20997 16.07 2.20997 16.12 2.20997 16.16V16.42L1.99997 17.22C1.78608 18.0952 1.97688 19.0202 2.51964 19.7394C3.0624 20.4585 3.89964 20.8956 4.79997 20.93H13.08C13.2925 20.9292 13.504 20.9024 13.71 20.85H13.84C13.9902 20.8071 14.1373 20.7537 14.28 20.69L14.44 20.6C14.5593 20.5326 14.673 20.4557 14.78 20.37L14.94 20.24C15.0383 20.1483 15.1318 20.0515 15.22 19.95C15.22 19.9 15.31 19.86 15.35 19.8C15.4617 19.6531 15.5589 19.4957 15.64 19.33C15.6826 19.2391 15.7194 19.1456 15.75 19.05C15.7893 18.9589 15.8227 18.8653 15.85 18.77C15.85 18.67 15.9 18.57 15.92 18.47V18.32H20.2C20.9061 18.2991 21.5647 17.9589 21.9904 17.3951C22.4161 16.8314 22.5631 16.1049 22.39 15.42Z" fill="black"/>
</svg>
