<svg width="24" height="24" viewBox="0 0 24 24" fill="none" xmlns="http://www.w3.org/2000/svg">
<path fill-rule="evenodd" clip-rule="evenodd" d="M21.74 14.7398L21.88 15.4298C22.0324 16.0193 21.9081 16.6461 21.5422 17.1327C21.1762 17.6193 20.6086 17.9127 20 17.9298H16.19C16.1909 19.5484 14.9077 20.8759 13.29 20.9298H4.99998C4.08452 20.9146 3.2261 20.4823 2.66899 19.7557C2.11188 19.0291 1.91706 18.0879 2.13998 17.1998L2.34998 16.1998C2.59417 14.8223 3.78112 13.8115 5.17998 13.7898H13.12C13.4743 13.3663 13.9978 13.1211 14.55 13.1198H19.84C20.774 13.1496 21.5629 13.8223 21.74 14.7398ZM19.98 16.4198C20.102 16.4153 20.2156 16.3567 20.29 16.2598C20.4208 16.1279 20.4866 15.9449 20.47 15.7598L20.33 15.0698C20.3029 14.8463 20.1241 14.6716 19.9 14.6498H14.61C14.4949 14.6506 14.3871 14.7063 14.32 14.7998C14.0332 15.1301 13.6174 15.3198 13.18 15.3198H5.23998C4.5554 15.3365 3.98177 15.8426 3.87998 16.5198L3.66998 17.5198C3.56741 18.0123 3.68825 18.525 3.99998 18.9198C4.24348 19.2269 4.60842 19.413 4.99998 19.4298H13.26C14.0648 19.3764 14.6833 18.6961 14.66 17.8898C14.6763 17.0731 15.3431 16.4197 16.16 16.4198H19.98Z" fill="black"/>
<path fill-rule="evenodd" clip-rule="evenodd" d="M13.1 7.99982C13.1 10.209 11.3091 11.9998 9.09998 11.9998C6.89084 11.9998 5.09998 10.209 5.09998 7.99982V6.42982C5.09998 4.57415 6.6043 3.06982 8.45998 3.06982H9.76998C11.6139 3.08629 13.1001 4.5858 13.1 6.42982V7.99982ZM8.45998 4.56982C7.43273 4.56982 6.59998 5.40257 6.59998 6.42982L6.62998 7.99982C6.78957 9.259 7.86073 10.203 9.12998 10.203C10.3992 10.203 11.4704 9.259 11.63 7.99982V6.42982C11.63 5.40257 10.7972 4.56982 9.76998 4.56982H8.45998Z" fill="black"/>
<path fill-rule="evenodd" clip-rule="evenodd" d="M20.68 8.24982C20.68 9.90668 19.3368 11.2498 17.68 11.2498C16.0231 11.2498 14.68 9.90668 14.68 8.24982V7.09982C14.6798 5.72354 15.7839 4.60167 17.16 4.57982H18.16C19.5517 4.57982 20.68 5.70807 20.68 7.09982V8.24982ZM17.18 6.09982C16.6277 6.09982 16.18 6.54754 16.18 7.09982V8.24982C16.18 9.07825 16.8516 9.74982 17.68 9.74982C18.5084 9.74982 19.18 9.07825 19.18 8.24982V7.09982C19.18 6.54754 18.7323 6.09982 18.18 6.09982H17.18Z" fill="black"/>
</svg>
