<svg width="24" height="24" viewBox="0 0 24 24" fill="none" xmlns="http://www.w3.org/2000/svg">
<path fill-rule="evenodd" clip-rule="evenodd" d="M18.75 4.75V8.43C20.5164 8.46123 21.9469 9.87414 22 11.64V18.77C21.974 19.6587 21.5937 20.5001 20.9438 21.1068C20.2939 21.7135 19.4284 22.0351 18.54 22H5.46C4.57162 22.0351 3.7061 21.7135 3.0562 21.1068C2.40631 20.5001 2.02601 19.6587 2 18.77V8C2.03201 6.2185 3.4685 4.78201 5.25 4.75C5.25 3.23122 6.48122 2 8 2H16C17.5188 2 18.75 3.23122 18.75 4.75ZM10.06 4.75C11.1002 4.72196 11.9673 5.53997 12 6.58C12.0327 7.62003 12.8998 8.43804 13.94 8.41H17.25V4.75C17.25 4.05964 16.6904 3.5 16 3.5H8C7.30964 3.5 6.75 4.05964 6.75 4.75H10.06Z" fill="black"/>
</svg>
