<svg width="24" height="24" viewBox="0 0 24 24" fill="none" xmlns="http://www.w3.org/2000/svg">
<path d="M13.24 15.6201L9.83 16.3501C9.69707 16.3648 9.56294 16.3648 9.43 16.3501C8.95699 16.3542 8.50246 16.1666 8.17 15.8301C7.74274 15.3919 7.56592 14.7673 7.7 14.1701L8.43 10.7701C8.58508 10.1016 8.93275 9.49316 9.43 9.02014L15.13 3.32014H6.13C5.01465 3.30658 3.94101 3.74367 3.15228 4.53241C2.36354 5.32114 1.92645 6.39478 1.94 7.51014V17.8601C1.94 20.1466 3.79354 22.0001 6.08 22.0001H16.44C18.7265 22.0001 20.58 20.1466 20.58 17.8601V9.07014L15 14.6601C14.5195 15.1449 13.9077 15.4786 13.24 15.6201Z" fill="black"/>
<path fill-rule="evenodd" clip-rule="evenodd" d="M16.77 3.11014C17.9273 1.7824 19.9367 1.63091 21.28 2.77014C21.843 3.41841 22.1238 4.26471 22.06 5.12097C21.9961 5.97723 21.5929 6.77252 20.94 7.33014L14.27 14.0001C13.9182 14.3329 13.4767 14.5554 13 14.6401L9.62001 15.4001C9.34191 15.4812 9.04186 15.3993 8.84346 15.1883C8.64506 14.9772 8.58191 14.6727 8.68001 14.4001L9.41001 11.0001C9.52153 10.537 9.76056 10.1144 10.1 9.78014L16.77 3.11014ZM17.18 7.77014L19.42 5.53014C19.6954 5.23463 19.6872 4.77413 19.4016 4.48851C19.116 4.2029 18.6555 4.19478 18.36 4.47014L16.12 6.71014C15.8275 7.00295 15.8275 7.47732 16.12 7.77014C16.4128 8.06259 16.8872 8.06259 17.18 7.77014Z" fill="black"/>
</svg>
