<svg width="24" height="24" viewBox="0 0 24 24" fill="none" xmlns="http://www.w3.org/2000/svg">
<path fill-rule="evenodd" clip-rule="evenodd" d="M15.4201 4.65006C15.4201 5.06427 15.0843 5.40006 14.6701 5.40006H7.24006V5.49006C7.2346 6.45429 6.45429 7.2346 5.49006 7.24006H3.81006C2.84583 7.2346 2.06552 6.45429 2.06006 5.49006V3.81006C2.06552 2.84583 2.84583 2.06552 3.81006 2.06006H5.49006C6.45429 2.06552 7.2346 2.84583 7.24006 3.81006V3.90006H14.6701C15.0843 3.90006 15.4201 4.23584 15.4201 4.65006ZM5.49006 5.74006C5.62813 5.74006 5.74006 5.62813 5.74006 5.49006V3.81006C5.74006 3.67199 5.62813 3.56006 5.49006 3.56006H3.81006C3.67417 3.56519 3.56519 3.67417 3.56006 3.81006V5.49006C3.56006 5.62813 3.67199 5.74006 3.81006 5.74006H5.49006Z" fill="black"/>
<path fill-rule="evenodd" clip-rule="evenodd" d="M18.5101 2.06006H20.1901C21.1543 2.06552 21.9346 2.84583 21.9401 3.81006V5.49006C21.9346 6.45429 21.1543 7.2346 20.1901 7.24006H20.1001V14.6701C20.1001 15.0843 19.7643 15.4201 19.3501 15.4201C18.9358 15.4201 18.6001 15.0843 18.6001 14.6701V7.24006H18.5101C17.5458 7.2346 16.7655 6.45429 16.7601 5.49006V3.81006C16.7655 2.84583 17.5458 2.06552 18.5101 2.06006ZM20.1901 5.74006C20.3281 5.74006 20.4401 5.62813 20.4401 5.49006V3.81006C20.4349 3.67417 20.3259 3.56519 20.1901 3.56006H18.5101C18.372 3.56006 18.2601 3.67199 18.2601 3.81006V5.49006C18.2601 5.62813 18.372 5.74006 18.5101 5.74006H20.1901Z" fill="black"/>
<path fill-rule="evenodd" clip-rule="evenodd" d="M5.40006 16.7601H5.49006C6.45429 16.7655 7.2346 17.5458 7.24006 18.5101V20.1901C7.2346 21.1543 6.45429 21.9346 5.49006 21.9401H3.81006C2.84583 21.9346 2.06552 21.1543 2.06006 20.1901V18.5101C2.06552 17.5458 2.84583 16.7655 3.81006 16.7601H3.90006V9.33006C3.90006 8.91584 4.23584 8.58006 4.65006 8.58006C5.06427 8.58006 5.40006 8.91584 5.40006 9.33006V16.7601ZM5.49006 20.4401C5.62813 20.4401 5.74006 20.3281 5.74006 20.1901V18.5101C5.74006 18.372 5.62813 18.2601 5.49006 18.2601H3.81006C3.67199 18.2601 3.56006 18.372 3.56006 18.5101V20.1901C3.56519 20.3259 3.67417 20.4349 3.81006 20.4401H5.49006Z" fill="black"/>
<path fill-rule="evenodd" clip-rule="evenodd" d="M18.5101 16.7601H20.1901C21.1543 16.7655 21.9346 17.5458 21.9401 18.5101V20.1901C21.9346 21.1543 21.1543 21.9346 20.1901 21.9401H18.5101C17.5458 21.9346 16.7655 21.1543 16.7601 20.1901V20.1001H9.33006C8.91584 20.1001 8.58006 19.7643 8.58006 19.3501C8.58006 18.9358 8.91584 18.6001 9.33006 18.6001H16.7601V18.5101C16.7655 17.5458 17.5458 16.7655 18.5101 16.7601ZM20.1901 20.4401C20.3259 20.4349 20.4349 20.3259 20.4401 20.1901V18.5101C20.4401 18.372 20.3281 18.2601 20.1901 18.2601H18.5101C18.372 18.2601 18.2601 18.372 18.2601 18.5101V20.1901C18.2601 20.3281 18.372 20.4401 18.5101 20.4401H20.1901Z" fill="black"/>
</svg>
