<svg width="24" height="24" viewBox="0 0 24 24" fill="none" xmlns="http://www.w3.org/2000/svg">
<path d="M18.37 1.86996H10.75V3.47996C10.75 3.89417 10.4142 4.22996 9.99999 4.22996C9.58578 4.22996 9.24999 3.89417 9.24999 3.47996V1.86996H7.77999V5.20996C7.77999 5.62417 7.4442 5.95996 7.02999 5.95996C6.61578 5.95996 6.27999 5.62417 6.27999 5.20996V1.86996H5.62999C5.07742 1.83396 4.53465 2.02868 4.13097 2.40772C3.72728 2.78677 3.49882 3.31621 3.49999 3.86996V10.21H20.5V3.86996C20.5012 3.31621 20.2727 2.78677 19.869 2.40772C19.4653 2.02868 18.9226 1.83396 18.37 1.86996Z" fill="black"/>
<path fill-rule="evenodd" clip-rule="evenodd" d="M6.07999 15.06C4.64635 15.038 3.49884 13.8637 3.50999 12.43L3.48999 11.7H20.49V12.51C20.5011 13.9437 19.3536 15.118 17.92 15.14L14.48 15.05L14.57 15.51C14.5881 15.9102 14.7161 16.2977 14.94 16.63C15.293 17.2045 15.4799 17.8656 15.48 18.54C15.4861 19.5506 15.0648 20.5168 14.32 21.2C13.0103 22.4206 10.9797 22.4206 9.66999 21.2C8.94068 20.5275 8.52405 19.5819 8.51999 18.59C8.51657 17.9165 8.70004 17.2553 9.04999 16.68C9.28236 16.3513 9.41437 15.9622 9.42999 15.56V15.06H6.07999ZM11.94 18.41C11.5258 18.41 11.19 18.7457 11.19 19.16V20.06C11.19 20.4742 11.5258 20.81 11.94 20.81C12.3542 20.81 12.69 20.4742 12.69 20.06V19.16C12.69 18.7457 12.3542 18.41 11.94 18.41Z" fill="black"/>
</svg>
