<svg width="24" height="24" viewBox="0 0 24 24" fill="none" xmlns="http://www.w3.org/2000/svg">
<path fill-rule="evenodd" clip-rule="evenodd" d="M17.18 4.24981L20.18 7.24981C21.7375 8.81112 21.7375 11.3385 20.18 12.8998L19.08 13.9998L17.49 15.5998L12.18 20.9098H7.1L3.82 17.6598C3.06889 16.9095 2.64685 15.8914 2.64685 14.8298C2.64685 13.7682 3.06889 12.7501 3.82 11.9998L11.52 4.24981C12.2703 3.4987 13.2884 3.07666 14.35 3.07666C15.4116 3.07666 16.4297 3.4987 17.18 4.24981ZM14.36 16.6098L15.83 15.1498L17 13.9998L10.43 7.47981L7.83 10.0798L14.36 16.6098ZM11.56 19.4098H7.72L4.88 16.5698C3.90621 15.5907 3.90621 14.0089 4.88 13.0298L6.77 11.1398L13.3 17.6698L11.56 19.4098ZM18 12.9998L19.12 11.8498C20.0954 10.8769 20.0999 9.29823 19.13 8.31981L16.13 5.31981C15.1509 4.34602 13.5691 4.34602 12.59 5.31981L11.49 6.41981L18 12.9998Z" fill="black"/>
<path d="M8.9 9.55981C8.89728 9.75954 8.97542 9.95189 9.11667 10.0931C9.25792 10.2344 9.45026 10.3125 9.65 10.3098H10.76C11.1742 10.3098 11.51 9.97402 11.51 9.55981C11.51 9.14559 11.1742 8.80981 10.76 8.80981H9.65C9.23578 8.80981 8.9 9.14559 8.9 9.55981Z" fill="black"/>
<path d="M13.35 13.9998C13.3473 14.1995 13.4254 14.3919 13.5667 14.5331C13.7079 14.6744 13.9003 14.7525 14.1 14.7498H15.21C15.6242 14.7498 15.96 14.414 15.96 13.9998C15.96 13.5856 15.6242 13.2498 15.21 13.2498H14.1C13.6858 13.2498 13.35 13.5856 13.35 13.9998Z" fill="black"/>
<path d="M11.12 11.7898C11.1254 12.2018 11.458 12.5344 11.87 12.5398H13C13.4253 12.5398 13.77 12.1951 13.77 11.7698C13.77 11.3445 13.4253 10.9998 13 10.9998H11.87C11.6649 11.0023 11.4695 11.0877 11.3282 11.2365C11.187 11.3853 11.1119 11.5848 11.12 11.7898Z" fill="black"/>
</svg>
