<svg width="24" height="24" viewBox="0 0 24 24" fill="none" xmlns="http://www.w3.org/2000/svg">
<path fill-rule="evenodd" clip-rule="evenodd" d="M19.3513 7.35888C20.7496 8.75717 20.7801 11.0147 19.42 12.4502L19.71 12.7702C19.9414 12.9945 19.9983 13.344 19.85 13.6302L17 19.3002C16.8939 19.5035 16.7037 19.6498 16.48 19.7002L5.99002 21.8202H5.84002C5.61517 21.8181 5.40277 21.7166 5.25996 21.5429C5.11715 21.3692 5.05859 21.1412 5.10002 20.9202L7.20002 10.3002C7.24363 10.0709 7.39148 9.87498 7.60002 9.77018L13.18 6.94018C13.4692 6.79027 13.8224 6.84711 14.05 7.08018L14.26 7.29018C15.6955 5.93013 17.953 5.96059 19.3513 7.35888ZM18.1128 8.55738C17.3687 7.81327 16.1953 7.71713 15.34 8.33018L18.34 11.3302C18.9531 10.4749 18.8569 9.30149 18.1128 8.55738ZM15.82 18.3302L8.14002 19.8402L10.83 17.1502C11.084 17.2541 11.3556 17.3084 11.63 17.3102C12.195 17.3137 12.737 17.0861 13.13 16.6802C13.8163 15.9994 13.9581 14.9419 13.4755 14.1044C12.9928 13.2669 12.0067 12.8594 11.0736 13.1119C10.1405 13.3644 9.49448 14.2136 9.50002 15.1802C9.50379 15.5102 9.58243 15.835 9.73002 16.1302L7.05002 18.8102L8.60002 11.0002L13.37 8.57018L18.27 13.4702L15.82 18.3302ZM11 15.2302C10.9969 15.3954 11.062 15.5545 11.18 15.6702V15.6202C11.2903 15.7591 11.4532 15.846 11.63 15.8602C11.7965 15.8595 11.9554 15.7909 12.07 15.6702C12.1898 15.5551 12.2575 15.3963 12.2575 15.2302C12.2575 15.0641 12.1898 14.9052 12.07 14.7902C11.9568 14.6674 11.797 14.5984 11.63 14.6002C11.4606 14.6004 11.2984 14.6689 11.18 14.7902C11.061 14.9051 10.9957 15.0648 11 15.2302Z" fill="black"/>
<path d="M6.00002 6.93018C6.00002 7.34439 6.33581 7.68018 6.75002 7.68018C7.16423 7.68018 7.50002 7.34439 7.50002 6.93018V5.68018H8.77002C9.18423 5.68018 9.52002 5.34439 9.52002 4.93018C9.52002 4.51596 9.18423 4.18018 8.77002 4.18018H7.52002V2.93018C7.52002 2.66223 7.37707 2.41463 7.14502 2.28066C6.91297 2.14668 6.62707 2.14668 6.39502 2.28066C6.16297 2.41463 6.02002 2.66223 6.02002 2.93018V4.18018H4.77002C4.35581 4.18018 4.02002 4.51596 4.02002 4.93018C4.02002 5.34439 4.35581 5.68018 4.77002 5.68018H6.00002V6.93018Z" fill="black"/>
</svg>
