<svg width="24" height="24" viewBox="0 0 24 24" fill="none" xmlns="http://www.w3.org/2000/svg">
<path fill-rule="evenodd" clip-rule="evenodd" d="M19.2442 7.17869C20.6789 8.59511 20.7859 10.8757 19.49 12.4202L19.66 12.5902C19.9645 12.8972 20.0372 13.3653 19.84 13.7502L16.99 19.4102C16.8509 19.6853 16.5926 19.8809 16.29 19.9402L5.80002 22.0702H5.60002C5.29621 22.0763 5.00609 21.944 4.81155 21.7106C4.61702 21.4771 4.53918 21.1679 4.60002 20.8702L6.70002 10.2502C6.75933 9.94761 6.95489 9.68933 7.23002 9.55018L12.84 6.82018C13.2249 6.62304 13.693 6.69566 14 7.00018C15.5277 5.6846 17.8095 5.76227 19.2442 7.17869ZM18.09 11.0002C18.6568 10.2439 18.5889 9.18769 17.93 8.51018C17.2542 7.83598 16.1816 7.77163 15.43 8.36018L18.09 11.0002ZM15.4 18.0602L8.66002 19.4202L10.66 17.4202C10.8942 17.5045 11.1411 17.5485 11.39 17.5502C12.0209 17.5497 12.6255 17.2978 13.07 16.8502C13.9901 15.9192 13.9901 14.4212 13.07 13.4902C12.6235 13.0426 12.0173 12.791 11.385 12.791C10.7528 12.791 10.1465 13.0426 9.70002 13.4902C9.24705 13.9352 8.99438 14.5452 9.00002 15.1802C9.00032 15.4881 9.05797 15.7933 9.17002 16.0802L7.17002 18.0802L8.54002 11.1402L13.04 8.86018L13.25 9.06018L17.35 13.1502L17.65 13.4602L15.4 18.0602ZM11.11 14.9102C10.9653 15.0611 10.9653 15.2993 11.11 15.4502C11.1695 15.5381 11.2688 15.5908 11.375 15.5908C11.4812 15.5908 11.5805 15.5381 11.64 15.4502C11.7848 15.2993 11.7848 15.0611 11.64 14.9102C11.5704 14.8387 11.4748 14.7984 11.375 14.7984C11.2752 14.7984 11.1797 14.8387 11.11 14.9102Z" fill="black"/>
<path d="M5.52002 6.93018C5.52002 7.48246 5.96773 7.93018 6.52002 7.93018C7.0723 7.93018 7.52002 7.48246 7.52002 6.93018V5.93018H8.52002C9.0723 5.93018 9.52002 5.48246 9.52002 4.93018C9.52002 4.37789 9.0723 3.93018 8.52002 3.93018H7.52002V2.93018C7.52002 2.37789 7.0723 1.93018 6.52002 1.93018C5.96773 1.93018 5.52002 2.37789 5.52002 2.93018V3.93018H4.52002C3.96773 3.93018 3.52002 4.37789 3.52002 4.93018C3.52002 5.48246 3.96773 5.93018 4.52002 5.93018H5.52002V6.93018Z" fill="black"/>
</svg>
