<svg width="24" height="24" viewBox="0 0 24 24" fill="none" xmlns="http://www.w3.org/2000/svg">
<path fill-rule="evenodd" clip-rule="evenodd" d="M15.5599 2.43994H8.43994C5.12623 2.43994 2.43994 5.12623 2.43994 8.43994V15.5599C2.43994 18.8736 5.12623 21.5599 8.43994 21.5599H15.5599C18.8736 21.5599 21.5599 18.8736 21.5599 15.5599V8.43994C21.5599 5.12623 18.8736 2.43994 15.5599 2.43994ZM5.35994 8.06994C5.36533 7.65798 5.69798 7.32533 6.10994 7.31994H7.31994V6.10994C7.31994 5.69573 7.65573 5.35994 8.06994 5.35994C8.48416 5.35994 8.81994 5.69573 8.81994 6.10994V7.31994H13.7499C15.3659 7.32543 16.6745 8.63403 16.6799 10.2499V13.9999C16.6799 14.4142 16.3442 14.7499 15.9299 14.7499C15.5157 14.7499 15.1799 14.4142 15.1799 13.9999V10.2499C15.1745 9.46244 14.5374 8.82539 13.7499 8.81994H6.10994C5.69573 8.81994 5.35994 8.48416 5.35994 8.06994ZM16.6799 16.6799H17.8899V16.6399C18.3042 16.6399 18.6399 16.3042 18.6399 15.8899C18.6399 15.4757 18.3042 15.1399 17.8899 15.1399H10.2499C9.46244 15.1345 8.82539 14.4974 8.81994 13.7099V9.99994C8.81994 9.58573 8.48416 9.24994 8.06994 9.24994C7.65573 9.24994 7.31994 9.58573 7.31994 9.99994V13.7499C7.32543 15.3659 8.63403 16.6745 10.2499 16.6799H15.1799V17.8899C15.1799 18.3042 15.5157 18.6399 15.9299 18.6399C16.3442 18.6399 16.6799 18.3042 16.6799 17.8899V16.6799Z" fill="black"/>
</svg>
