<svg width="24" height="24" viewBox="0 0 24 24" fill="none" xmlns="http://www.w3.org/2000/svg">
<path fill-rule="evenodd" clip-rule="evenodd" d="M20.5 4.24984C20.5011 3.69609 20.2727 3.16665 19.869 2.7876C19.4653 2.40856 18.9225 2.21384 18.37 2.24984H5.62996C5.07738 2.21384 4.53462 2.40856 4.13093 2.7876C3.72725 3.16665 3.49879 3.69609 3.49996 4.24984V12.8098C3.4888 14.2436 4.63632 15.4179 6.06996 15.4398H9.41996V15.9298C9.39599 16.3119 9.27183 16.681 9.05996 16.9998C8.15265 18.468 8.40798 20.3725 9.66996 21.5498C10.9737 22.7854 13.0162 22.7854 14.32 21.5498C15.0653 20.8713 15.487 19.9078 15.48 18.8998C15.4993 18.2342 15.3331 17.5764 15 16.9998C14.7673 16.6675 14.6354 16.2752 14.62 15.8698L14.53 15.4198L17.97 15.5098C19.4036 15.4879 20.5511 14.3136 20.54 12.8798V11.7498L20.5 4.24984ZM5.06996 4.24984C5.06996 4.09984 5.06996 3.81984 5.62996 3.81984H18.37C18.93 3.81984 18.93 4.09984 18.93 4.24984V10.1798H5.06996V4.24984ZM18 14.0298C18.5798 13.9772 19.0182 13.4818 19 12.8998V11.7498H4.99996V12.8098C4.99191 13.1033 5.10149 13.3878 5.30433 13.6C5.50717 13.8123 5.78643 13.9346 6.07996 13.9398H9.49996C10.2914 13.9563 10.9211 14.6084 10.91 15.3998V15.8898C10.8937 16.5734 10.6858 17.2387 10.31 17.8098C10.1043 18.147 9.99695 18.5349 9.99996 18.9298C10.0005 19.5229 10.2553 20.0873 10.7 20.4798C11.4534 21.1373 12.5766 21.1373 13.33 20.4798C13.7624 20.0811 14.0058 19.518 14 18.9298C14.0138 18.5357 13.9205 18.1451 13.73 17.7998C13.3529 17.2329 13.1448 16.5705 13.13 15.8898V15.3998C13.1246 15.0162 13.2726 14.6463 13.5411 14.3722C13.8095 14.0981 14.1763 13.9425 14.56 13.9398L18 14.0298Z" fill="black"/>
<path d="M7.00004 4.35984C6.58582 4.35984 6.25004 4.69563 6.25004 5.10984V8.57984C6.25004 8.99405 6.58582 9.32984 7.00004 9.32984C7.41425 9.32984 7.75004 8.99405 7.75004 8.57984V5.10984C7.74465 4.69788 7.412 4.36523 7.00004 4.35984Z" fill="black"/>
<path d="M10 4.35984C9.58808 4.36523 9.25542 4.69788 9.25004 5.10984V6.85984C9.25004 7.27405 9.58582 7.60984 10 7.60984C10.4143 7.60984 10.75 7.27405 10.75 6.85984V5.10984C10.7447 4.69788 10.412 4.36523 10 4.35984Z" fill="black"/>
</svg>
