<svg width="24" height="24" viewBox="0 0 24 24" fill="none" xmlns="http://www.w3.org/2000/svg">
<path d="M6.89994 16.5299C6.89994 16.4029 7.00292 16.2999 7.12994 16.2999H7.46994C7.59697 16.2999 7.69994 16.4029 7.69994 16.5299V16.8699C7.69994 16.997 7.59697 17.0999 7.46994 17.0999H7.12994C7.00292 17.0999 6.89994 16.997 6.89994 16.8699V16.5299Z" fill="black"/>
<path d="M16.2999 16.5299C16.2999 16.4029 16.4029 16.2999 16.5299 16.2999H16.8699C16.997 16.2999 17.0999 16.4029 17.0999 16.5299V16.8699C17.0999 16.997 16.997 17.0999 16.8699 17.0999H16.5299C16.4029 17.0999 16.2999 16.997 16.2999 16.8699V16.5299Z" fill="black"/>
<path d="M6.89994 7.12994C6.89994 7.00292 7.00292 6.89994 7.12994 6.89994H7.46994C7.59697 6.89994 7.69994 7.00292 7.69994 7.12994V7.46994C7.69994 7.59697 7.59697 7.69994 7.46994 7.69994H7.12994C7.00292 7.69994 6.89994 7.59697 6.89994 7.46994V7.12994Z" fill="black"/>
<path fill-rule="evenodd" clip-rule="evenodd" d="M15.5599 2.43994H8.43994C5.12623 2.43994 2.43994 5.12623 2.43994 8.43994V15.5599C2.43994 18.8736 5.12623 21.5599 8.43994 21.5599H15.5599C18.8736 21.5599 21.5599 18.8736 21.5599 15.5599V8.43994C21.5599 5.12623 18.8736 2.43994 15.5599 2.43994ZM5.34994 7.12994C5.34994 6.14687 6.14687 5.34994 7.12994 5.34994H7.47994C8.22493 5.35948 8.8861 5.82947 9.13994 6.52994H12.7099C13.1041 6.57478 13.4018 6.90828 13.4018 7.30494C13.4018 7.70161 13.1041 8.0351 12.7099 8.07994H9.13994C8.88521 8.77831 8.2233 9.24483 7.47994 9.24994H7.12994C6.15077 9.24996 5.35544 8.4591 5.34994 7.47994V7.12994ZM7.47994 18.6499C8.4591 18.6444 9.24996 17.8491 9.24994 16.8699V16.5199C9.24483 15.7766 8.77831 15.1147 8.07994 14.8599V11.2899C8.07996 11.084 7.99746 10.8866 7.85089 10.7419C7.70432 10.5972 7.50589 10.5173 7.29994 10.5199C7.0949 10.5172 6.89747 10.5975 6.75247 10.7425C6.60748 10.8875 6.52723 11.0849 6.52994 11.2899V14.8599C5.82947 15.1138 5.35948 15.775 5.34994 16.5199V16.8699C5.34994 17.853 6.14687 18.6499 7.12994 18.6499H7.47994ZM18.6499 16.8699C18.6499 17.853 17.853 18.6499 16.8699 18.6499H16.5199C15.775 18.6404 15.1138 18.1704 14.8599 17.4699H11.2899C11.0849 17.4727 10.8875 17.3924 10.7425 17.2474C10.5975 17.1024 10.5172 16.905 10.5199 16.6999C10.5173 16.494 10.5972 16.2956 10.7419 16.149C10.8866 16.0024 11.084 15.9199 11.2899 15.9199H14.8599C15.1147 15.2216 15.7766 14.755 16.5199 14.7499H16.8699C17.8491 14.7499 18.6444 15.5408 18.6499 16.5199V16.8699ZM17.4699 9.13994C18.1704 8.8861 18.6404 8.22493 18.6499 7.47994V7.12994C18.6499 6.14687 17.853 5.34994 16.8699 5.34994H16.5199C15.5408 5.35544 14.7499 6.15077 14.7499 7.12994V7.47994C14.755 8.2233 15.2216 8.88521 15.9199 9.13994V12.7099C15.9648 13.1041 16.2983 13.4018 16.6949 13.4018C17.0916 13.4018 17.4251 13.1041 17.4699 12.7099V9.13994Z" fill="black"/>
<path d="M16.2999 7.12994C16.2999 7.00292 16.4029 6.89994 16.5299 6.89994H16.8699C16.997 6.89994 17.0999 7.00292 17.0999 7.12994V7.46994C17.0999 7.59697 16.997 7.69994 16.8699 7.69994H16.5299C16.4029 7.69994 16.2999 7.59697 16.2999 7.46994V7.12994Z" fill="black"/>
</svg>
