<svg width="24" height="24" viewBox="0 0 24 24" fill="none" xmlns="http://www.w3.org/2000/svg">
<path fill-rule="evenodd" clip-rule="evenodd" d="M19.1099 1.41016C19.8969 1.41347 20.6511 1.72592 21.2099 2.28016C22.3141 3.35672 22.4222 5.09508 21.4599 6.30016L13.7999 15.6602L13.6999 15.7702C12.908 16.57 11.8253 17.0139 10.6999 17.0002C10.2641 16.9878 9.83269 16.9102 9.41988 16.7702C9.72026 17.3299 9.87824 17.9549 9.87988 18.5902C9.87988 19.651 9.45846 20.6684 8.70831 21.4186C7.95816 22.1687 6.94075 22.5902 5.87988 22.5902H3.37988C2.55146 22.5902 1.87988 21.9186 1.87988 21.0902V18.5902C1.87988 16.381 3.67074 14.5902 5.87988 14.5902C6.26018 14.593 6.63784 14.6537 6.99988 14.7702C6.1202 13.1489 6.42222 11.1409 7.73988 9.85016L7.85988 9.75016L17.2199 2.09016C17.753 1.65305 18.4205 1.41292 19.1099 1.41016ZM10.9999 13.6002L13.9999 10.6002C14.2752 10.3046 14.2671 9.84415 13.9815 9.55853C13.6959 9.27292 13.2354 9.2648 12.9399 9.54016L9.93988 12.5402C9.64743 12.833 9.64743 13.3073 9.93988 13.6002C10.0798 13.7418 10.2708 13.8211 10.4699 13.8202C10.6696 13.8247 10.862 13.7448 10.9999 13.6002Z" fill="black"/>
</svg>
