<svg width="24" height="24" viewBox="0 0 24 24" fill="none" xmlns="http://www.w3.org/2000/svg">
<path d="M3 5.18C3 4.5283 3.5283 4 4.18 4H19.43C20.0817 4 20.61 4.5283 20.61 5.18V5.32C20.61 5.9717 20.0817 6.5 19.43 6.5H4.18C3.52831 6.5 3 5.9717 3 5.32V5.18Z" fill="black"/>
<path fill-rule="evenodd" clip-rule="evenodd" d="M4.41742 8.38744C4.6168 8.18807 4.88798 8.07726 5.16993 8.07995H18.4499C18.7319 8.07726 19.0031 8.18807 19.2024 8.38744C19.4018 8.58682 19.5126 8.85801 19.5099 9.13995V17.91C19.5153 18.6499 19.2264 19.3617 18.7069 19.8887C18.1874 20.4156 17.4799 20.7147 16.7399 20.72H6.87993C6.13997 20.7147 5.43242 20.4156 4.91294 19.8887C4.39346 19.3617 4.10461 18.6499 4.10993 17.91V9.13995C4.10723 8.85801 4.21804 8.58682 4.41742 8.38744ZM9.41993 12.89H14.1999C14.4857 12.89 14.7498 12.7375 14.8928 12.49C15.0357 12.2424 15.0357 11.9375 14.8928 11.69C14.7498 11.4424 14.4857 11.29 14.1999 11.29H9.41993C8.9781 11.29 8.61993 11.6481 8.61993 12.09C8.61993 12.5318 8.9781 12.89 9.41993 12.89Z" fill="black"/>
</svg>
