<svg width="24" height="24" viewBox="0 0 24 24" fill="none" xmlns="http://www.w3.org/2000/svg">
<path d="M14.19 6.46002H9.77999L9.85999 6.37002C10.1434 6.09009 10.3028 5.70835 10.3028 5.31002C10.3028 4.9117 10.1434 4.52996 9.85999 4.25002C9.27211 3.67057 8.32787 3.67057 7.73999 4.25002L5.08999 6.90002C4.94976 7.0388 4.84067 7.20583 4.76999 7.39002C4.62387 7.73867 4.62387 8.13138 4.76999 8.48002C4.84229 8.67229 4.95093 8.84884 5.08999 9.00002L7.73999 11.64C8.32562 12.2249 9.27435 12.2249 9.85999 11.64C10.1434 11.3601 10.3028 10.9783 10.3028 10.58C10.3028 10.1817 10.1434 9.79996 9.85999 9.52002L9.77999 9.44002H14.19C14.8653 9.43994 15.5124 9.71092 15.9862 10.1922C16.4599 10.6735 16.7207 11.3248 16.71 12V18.72C16.71 19.5485 17.3816 20.22 18.21 20.22C19.0384 20.22 19.71 19.5485 19.71 18.72V12C19.7153 10.5326 19.1361 9.12339 18.1003 8.08386C17.0645 7.04433 15.6575 6.46001 14.19 6.46002Z" fill="black"/>
</svg>
