<svg width="24" height="24" viewBox="0 0 24 24" fill="none" xmlns="http://www.w3.org/2000/svg">
<path d="M14.43 3.49989H7.99999C7.59779 3.49455 7.21008 3.64991 6.92285 3.93151C6.63563 4.2131 6.47262 4.59766 6.46999 4.99989C6.46714 5.40382 6.6284 5.79161 6.91685 6.0744C7.2053 6.35718 7.5962 6.51074 7.99999 6.49989H14.36C15.9523 6.54865 17.2162 7.8568 17.21 9.44989V11.6199C17.21 13.2767 15.8668 14.6199 14.21 14.6199H8.99999L9.36999 14.2499C9.95542 13.6617 9.95318 12.7103 9.36499 12.1249C8.77681 11.5395 7.82542 11.5417 7.23999 12.1299L4.26999 14.9999C4.13107 15.1418 4.01923 15.3078 3.93999 15.4899C3.80711 15.8411 3.80711 16.2287 3.93999 16.5799C4.01666 16.7634 4.1288 16.9299 4.26999 17.0699L7.18999 19.9999C7.77906 20.5859 8.73093 20.5859 9.31999 19.9999C9.89945 19.412 9.89945 18.4678 9.31999 17.8799L8.99999 17.5699H14.27C17.5837 17.5699 20.27 14.8836 20.27 11.5699V9.44989C20.2868 6.19968 17.68 3.54377 14.43 3.49989Z" fill="black"/>
</svg>
