<svg width="24" height="24" viewBox="0 0 24 24" fill="none" xmlns="http://www.w3.org/2000/svg">
<path d="M18.05 7.43012C18.0527 7.23038 17.9746 7.03803 17.8333 6.89679C17.6921 6.75554 17.4997 6.6774 17.3 6.68012C16.8858 6.68012 16.55 7.0159 16.55 7.43012V15.5001L7.21999 6.16012C7.03302 5.95946 6.75144 5.87687 6.4857 5.94473C6.21997 6.01259 6.01247 6.22009 5.94461 6.48583C5.87674 6.75156 5.95934 7.03314 6.15999 7.22012L15.5 16.5601H7.42999C7.01578 16.5601 6.67999 16.8959 6.67999 17.3101C6.67999 17.7243 7.01578 18.0601 7.42999 18.0601H17.31C17.7242 18.0601 18.06 17.7243 18.06 17.3101L18.05 7.43012Z" fill="black"/>
</svg>
