<svg width="24" height="24" viewBox="0 0 24 24" fill="none" xmlns="http://www.w3.org/2000/svg">
<path d="M19.0001 13C18.6017 13.003 18.2192 12.8442 17.9401 12.56L12.0001 6.61L6.08006 12.54C5.72337 13.006 5.12772 13.2211 4.55559 13.0907C3.98345 12.9603 3.53991 12.5082 3.42041 11.9337C3.3009 11.3592 3.52739 10.7678 4.00006 10.42L11.0001 3.42C11.2693 3.16017 11.626 3.01037 12.0001 3C12.3977 3.00035 12.779 3.15862 13.0601 3.44L20.0601 10.44C20.6461 11.0291 20.6461 11.9809 20.0601 12.57C19.7786 12.8496 19.3967 13.0045 19.0001 13Z" fill="black"/>
<path d="M12.0001 21C11.1716 21 10.5001 20.3284 10.5001 19.5V4.5C10.5001 3.67157 11.1716 3 12.0001 3C12.8285 3 13.5001 3.67157 13.5001 4.5V19.5C13.5001 20.3284 12.8285 21 12.0001 21Z" fill="black"/>
</svg>
