<svg width="24" height="24" viewBox="0 0 24 24" fill="none" xmlns="http://www.w3.org/2000/svg">
<path d="M18.8 7.41998C18.7945 6.59546 18.1245 5.92996 17.3 5.92998C16.4716 5.92998 15.8 6.60155 15.8 7.42998V13.69L7.74998 5.61998C7.1618 5.03456 6.21041 5.0368 5.62498 5.62498C5.03956 6.21316 5.0418 7.16456 5.62998 7.74998L13.69 15.81H7.42998C6.60156 15.81 5.92998 16.4816 5.92998 17.31C5.92998 18.1384 6.60156 18.81 7.42998 18.81H17.32C17.7186 18.8127 18.1017 18.6555 18.3836 18.3736C18.6655 18.0917 18.8227 17.7086 18.82 17.31L18.8 7.41998Z" fill="black"/>
</svg>
