<svg width="24" height="24" viewBox="0 0 24 24" fill="none" xmlns="http://www.w3.org/2000/svg">
<path d="M14.22 6.42996H8.99999L9.36999 6.05996C9.7487 5.67054 9.89088 5.10866 9.74298 4.58599C9.59508 4.06331 9.17958 3.65924 8.65298 3.52599C8.12638 3.39273 7.5687 3.55054 7.18999 3.93996L4.26999 6.86996C4.1288 7.00997 4.01666 7.17649 3.93999 7.35996C3.80711 7.71114 3.80711 8.09877 3.93999 8.44996C4.01248 8.65334 4.12465 8.84029 4.26999 8.99996L7.18999 11.93C7.56956 12.3237 8.13238 12.4814 8.6613 12.3423C9.19022 12.2031 9.60255 11.7889 9.73922 11.2593C9.87589 10.7297 9.71552 10.1677 9.31999 9.78996L8.99999 9.42996H14.27C15.9268 9.42996 17.27 10.7731 17.27 12.43V14.6C17.2821 16.1802 16.0389 17.4853 14.46 17.55H6.45999C5.63157 17.55 4.95999 18.2215 4.95999 19.05C4.95999 19.8784 5.63157 20.55 6.45999 20.55H14.46C17.6762 20.4577 20.2322 17.8175 20.22 14.6V12.38C20.1925 9.08579 17.5143 6.42984 14.22 6.42996Z" fill="black"/>
</svg>
