<svg width="24" height="24" viewBox="0 0 24 24" fill="none" xmlns="http://www.w3.org/2000/svg">
<path d="M20.07 16.62C20.2029 16.2688 20.2029 15.8812 20.07 15.53C19.9908 15.3479 19.8789 15.1819 19.74 15.04L16.82 12.11C16.4413 11.7295 15.8884 11.58 15.3695 11.7177C14.8506 11.8554 14.4447 12.2595 14.3045 12.7777C14.1644 13.2959 14.3113 13.8495 14.69 14.23L15.06 14.6H9.78C8.1427 14.5727 6.82977 13.2375 6.83 11.6V9.45C6.81789 7.8698 8.06107 6.56467 9.64 6.5H17.54C18.3684 6.5 19.04 5.82843 19.04 5C19.04 4.17157 18.3684 3.5 17.54 3.5H9.59C6.37374 3.59222 3.81783 6.23245 3.83 9.45V11.62C3.82988 14.9143 6.48583 17.5925 9.78 17.62H15.05L14.68 17.99C14.1005 18.5779 14.1005 19.5221 14.68 20.11C15.2691 20.6961 16.2209 20.6961 16.81 20.11L19.73 17.18C19.8712 17.04 19.9833 16.8735 20.06 16.69L20.07 16.62Z" fill="black"/>
</svg>
