<svg width="24" height="24" viewBox="0 0 24 24" fill="none" xmlns="http://www.w3.org/2000/svg">
<path d="M14 7.20999H7.78003L9.15003 5.83999C9.35068 5.65302 9.43328 5.37143 9.36541 5.1057C9.29755 4.83997 9.09005 4.63247 8.82432 4.5646C8.55858 4.49674 8.277 4.57934 8.09003 4.77999L5.44003 7.42999C5.37224 7.49935 5.31798 7.58074 5.28003 7.66999C5.21004 7.85354 5.21004 8.05643 5.28003 8.23999C5.31771 8.33236 5.37193 8.41708 5.44003 8.48999L8.09003 11.13C8.22925 11.2726 8.42074 11.3521 8.62003 11.35C8.81909 11.3509 9.01014 11.2716 9.15003 11.13C9.44248 10.8372 9.44248 10.3628 9.15003 10.07L7.78003 8.70999H14C14.8725 8.7073 15.7099 9.05339 16.3258 9.67126C16.9418 10.2891 17.2854 11.1275 17.28 12V18.72C17.28 19.1342 17.6158 19.47 18.03 19.47C18.4442 19.47 18.78 19.1342 18.78 18.72V12C18.7854 10.7297 18.2838 9.50977 17.3865 8.6106C16.4892 7.71144 15.2703 7.20731 14 7.20999Z" fill="black"/>
</svg>
