<svg width="24" height="24" viewBox="0 0 24 24" fill="none" xmlns="http://www.w3.org/2000/svg">
<path d="M19.7299 16.31C19.692 16.2208 19.6377 16.1394 19.5699 16.07L16.6399 13.14C16.453 12.9394 16.1714 12.8568 15.9056 12.9246C15.6399 12.9925 15.4324 13.2 15.3645 13.4657C15.2967 13.7315 15.3793 14.0131 15.5799 14.2L17.2299 15.85H10.1399C8.09648 15.85 6.43993 14.1935 6.43993 12.15V10C6.42243 8.00019 8.00125 6.35041 9.99993 6.28003H17.8999C18.3141 6.28003 18.6499 5.94424 18.6499 5.53003C18.6499 5.11582 18.3141 4.78003 17.8999 4.78003H9.99993C7.20185 4.87729 4.98743 7.18029 4.99993 9.98003V12.15C5.00543 15.0196 7.33033 17.3445 10.1999 17.35H17.2899L15.5799 19C15.2875 19.2928 15.2875 19.7672 15.5799 20.06C15.7198 20.2017 15.9109 20.281 16.1099 20.28C16.3092 20.2821 16.5007 20.2026 16.6399 20.06L19.5699 17.13C19.6377 17.0607 19.692 16.9793 19.7299 16.89C19.81 16.705 19.81 16.4951 19.7299 16.31Z" fill="black"/>
</svg>
