<svg width="24" height="24" viewBox="0 0 24 24" fill="none" xmlns="http://www.w3.org/2000/svg">
<path d="M21.9099 14.2801C21.7689 14.1366 21.5762 14.0557 21.3749 14.0557C21.1737 14.0557 20.981 14.1366 20.8399 14.2801L17.4399 17.6901V8.69009C17.4399 8.27587 17.1042 7.94009 16.6899 7.94009C16.2757 7.94009 15.9399 8.27587 15.9399 8.69009V17.6901L12.5299 14.2801C12.3406 14.0889 12.0637 14.0133 11.8035 14.0818C11.5432 14.1502 11.3393 14.3522 11.2685 14.6118C11.1976 14.8713 11.2706 15.1489 11.4599 15.3401L16.1599 20.0001C16.2274 20.0702 16.3093 20.1248 16.3999 20.1601C16.4914 20.2 16.5902 20.2204 16.6899 20.2201C16.7865 20.2205 16.882 20.2 16.9699 20.1601C17.0635 20.1247 17.1486 20.0702 17.2199 20.0001L21.9099 15.3101C22.183 15.021 22.183 14.5691 21.9099 14.2801Z" fill="black"/>
<path d="M11.4699 9.72009C11.7662 10.0137 12.2437 10.0137 12.5399 9.72009C12.8324 9.42727 12.8324 8.9529 12.5399 8.66009L7.83995 4.00009C7.77251 3.92996 7.69061 3.87536 7.59995 3.84009C7.41639 3.7701 7.2135 3.7701 7.02995 3.84009C6.93757 3.87777 6.85285 3.93199 6.77995 4.00009L2.08995 8.66009C1.79749 8.9529 1.79749 9.42727 2.08995 9.72009C2.22923 9.86303 2.42036 9.94366 2.61995 9.94366C2.81953 9.94366 3.01066 9.86303 3.14995 9.72009L6.55995 6.31009V15.3101C6.55995 15.578 6.70289 15.8256 6.93495 15.9596C7.167 16.0936 7.45289 16.0936 7.68495 15.9596C7.917 15.8256 8.05995 15.578 8.05995 15.3101V6.31009L11.4699 9.72009Z" fill="black"/>
</svg>
