<svg width="24" height="24" viewBox="0 0 24 24" fill="none" xmlns="http://www.w3.org/2000/svg">
<path d="M18.72 7.66999C18.6821 7.58074 18.6278 7.49935 18.56 7.42999L15.91 4.77999C15.723 4.57934 15.4415 4.49674 15.1757 4.5646C14.91 4.63247 14.7025 4.83997 14.6346 5.1057C14.5668 5.37143 14.6494 5.65302 14.85 5.83999L16.22 7.20999H10C8.72973 7.20731 7.51084 7.71144 6.61355 8.6106C5.71626 9.50977 5.21468 10.7297 5.22001 12V18.72C5.22001 19.1342 5.5558 19.47 5.97001 19.47C6.38423 19.47 6.72001 19.1342 6.72001 18.72V12C6.71467 11.1275 7.05821 10.2891 7.6742 9.67126C8.29019 9.05339 9.12755 8.7073 10 8.70999H16.23L14.86 10.07C14.5676 10.3628 14.5676 10.8372 14.86 11.13C14.9999 11.2716 15.1909 11.3509 15.39 11.35C15.5893 11.3521 15.7808 11.2726 15.92 11.13L18.57 8.48999C18.6381 8.41708 18.6923 8.33236 18.73 8.23999C18.7968 8.05521 18.7932 7.85231 18.72 7.66999Z" fill="black"/>
</svg>
