<svg width="24" height="24" viewBox="0 0 24 24" fill="none" xmlns="http://www.w3.org/2000/svg">
<path d="M19.5999 8.5C19.7461 8.15135 19.7461 7.75864 19.5999 7.41C19.5329 7.22398 19.4233 7.05619 19.2799 6.92L16.6199 4.25C16.0289 3.69928 15.1079 3.71553 14.5367 4.28675C13.9655 4.85798 13.9492 5.77898 14.4999 6.37L14.5899 6.46H10.1699C8.70247 6.45999 7.2954 7.0443 6.25962 8.08383C5.22384 9.12336 4.64462 10.5325 4.64994 12V18.72C4.64994 19.5484 5.32151 20.22 6.14994 20.22C6.97837 20.22 7.64994 19.5484 7.64994 18.72V12C7.65545 10.6121 8.78208 9.48999 10.1699 9.49H14.5899L14.4999 9.57C13.9205 10.1579 13.9205 11.1021 14.4999 11.69C14.7828 11.9686 15.1629 12.1264 15.5599 12.13C15.9578 12.1308 16.3395 11.9723 16.6199 11.69L19.2699 9C19.4092 8.86047 19.5182 8.69364 19.5899 8.51L19.5999 8.5Z" fill="black"/>
</svg>
