<svg width="24" height="24" viewBox="0 0 24 24" fill="none" xmlns="http://www.w3.org/2000/svg">
<path d="M6.69001 18.0601C6.2758 18.0601 5.94001 17.7243 5.94001 17.3101V7.43012C5.93729 7.23038 6.01544 7.03803 6.15668 6.89679C6.29793 6.75554 6.49028 6.6774 6.69001 6.68012C7.10422 6.68012 7.44001 7.0159 7.44001 7.43012V16.5601H16.57C16.9842 16.5601 17.32 16.8959 17.32 17.3101C17.32 17.7243 16.9842 18.0601 16.57 18.0601H6.69001Z" fill="black"/>
<path d="M6.69001 18.0601C6.49094 18.0611 6.29989 17.9818 6.16001 17.8401C5.86756 17.5473 5.86756 17.0729 6.16001 16.7801L16.78 6.16012C16.967 5.95946 17.2486 5.87687 17.5143 5.94473C17.78 6.01259 17.9875 6.22009 18.0554 6.48583C18.1233 6.75156 18.0407 7.03314 17.84 7.22012L7.22001 17.8401C7.08013 17.9818 6.88908 18.0611 6.69001 18.0601Z" fill="black"/>
<path d="M6.69001 18.0601C6.2758 18.0601 5.94001 17.7243 5.94001 17.3101V7.43012C5.93729 7.23038 6.01544 7.03803 6.15668 6.89679C6.29793 6.75554 6.49028 6.6774 6.69001 6.68012C7.10422 6.68012 7.44001 7.0159 7.44001 7.43012V16.5601H16.57C16.9842 16.5601 17.32 16.8959 17.32 17.3101C17.32 17.7243 16.9842 18.0601 16.57 18.0601H6.69001Z" fill="black"/>
<path d="M6.69001 18.0601C6.49094 18.0611 6.29989 17.9818 6.16001 17.8401C5.86756 17.5473 5.86756 17.0729 6.16001 16.7801L16.78 6.16012C16.967 5.95946 17.2486 5.87687 17.5143 5.94473C17.78 6.01259 17.9875 6.22009 18.0554 6.48583C18.1233 6.75156 18.0407 7.03314 17.84 7.22012L7.22001 17.8401C7.08013 17.9818 6.88908 18.0611 6.69001 18.0601Z" fill="black"/>
</svg>
