<svg width="24" height="24" viewBox="0 0 24 24" fill="none" xmlns="http://www.w3.org/2000/svg">
<path d="M6.68999 18.0599C6.27578 18.0599 5.93999 17.7241 5.93999 17.3099V7.4299C5.93728 7.23017 6.01542 7.03782 6.15667 6.89658C6.29791 6.75533 6.49026 6.67719 6.68999 6.6799C7.10421 6.6799 7.43999 7.01569 7.43999 7.4299V16.5599H16.57C16.9842 16.5599 17.32 16.8957 17.32 17.3099C17.32 17.7241 16.9842 18.0599 16.57 18.0599H6.68999Z" fill="black"/>
<path d="M6.68999 18.0599C6.49093 18.0608 6.29988 17.9815 6.15999 17.8399C5.86754 17.5471 5.86754 17.0727 6.15999 16.7799L16.78 6.1599C16.967 5.95925 17.2486 5.87665 17.5143 5.94452C17.78 6.01238 17.9875 6.21988 18.0554 6.48562C18.1232 6.75135 18.0406 7.03293 17.84 7.2199L7.21999 17.8399C7.08077 17.9825 6.88929 18.062 6.68999 18.0599Z" fill="black"/>
<path d="M6.68999 18.8099C5.86157 18.8099 5.18999 18.1383 5.18999 17.3099V7.4199C5.19264 7.02208 5.35321 6.64159 5.6364 6.36216C5.91958 6.08273 6.30217 5.92724 6.69999 5.9299C7.52842 5.9299 8.19999 6.60148 8.19999 7.4299V15.8099H16.58C17.4084 15.8099 18.08 16.4815 18.08 17.3099C18.08 18.1383 17.4084 18.8099 16.58 18.8099H6.68999Z" fill="black"/>
<path d="M6.68999 18.8099C6.29252 18.8085 5.91165 18.6504 5.62999 18.3699C5.34662 18.09 5.18713 17.7082 5.18713 17.3099C5.18713 16.9116 5.34662 16.5298 5.62999 16.2499L16.25 5.6199C16.8487 5.10129 17.7463 5.13342 18.3064 5.69349C18.8665 6.25357 18.8986 7.15123 18.38 7.7499L7.74999 18.3699C7.46959 18.6522 7.08791 18.8107 6.68999 18.8099Z" fill="black"/>
</svg>
