<svg width="24" height="24" viewBox="0 0 24 24" fill="none" xmlns="http://www.w3.org/2000/svg">
<path d="M8.36002 11.8199H10.36C11.1884 11.8199 11.86 11.1484 11.86 10.3199C11.86 9.49151 11.1884 8.81994 10.36 8.81994H4.74002C4.5512 8.81967 4.36422 8.85707 4.19002 8.92994C3.81846 9.07804 3.52267 9.37022 3.37002 9.73994C3.3062 9.91294 3.27238 10.0956 3.27002 10.2799V15.8799C3.27002 16.7084 3.94159 17.3799 4.77002 17.3799C5.59845 17.3799 6.27002 16.7084 6.27002 15.8799V13.8799L10.13 17.7499C10.4129 18.0286 10.793 18.1864 11.19 18.1899C11.7963 18.1894 12.3427 17.8239 12.5746 17.2638C12.8065 16.7036 12.6785 16.0589 12.25 15.6299L8.36002 11.8199Z" fill="black"/>
<path d="M20.76 13.6799V8.07994C20.76 7.25151 20.0884 6.57994 19.26 6.57994C18.4316 6.57994 17.76 7.25151 17.76 8.07994V10.0799L13.9 6.18994C13.309 5.63922 12.388 5.65547 11.8168 6.22669C11.2456 6.79792 11.2293 7.71892 11.78 8.30994L15.64 12.1799H13.64C12.8116 12.1799 12.14 12.8515 12.14 13.6799C12.14 14.5084 12.8116 15.1799 13.64 15.1799H19.23C19.4188 15.1802 19.6058 15.1428 19.78 15.0699C20.1516 14.9218 20.4474 14.6297 20.6 14.2599C20.6948 14.0805 20.7494 13.8826 20.76 13.6799Z" fill="black"/>
</svg>
