<svg width="24" height="24" viewBox="0 0 24 24" fill="none" xmlns="http://www.w3.org/2000/svg">
<path d="M15.5799 11.3899C15.7228 11.5271 15.9119 11.6056 16.1099 11.6099C16.3084 11.6076 16.4982 11.5288 16.6399 11.3899L19.5699 8.45993C19.6401 8.38861 19.6946 8.30347 19.7299 8.20993C19.8096 8.02827 19.8096 7.82159 19.7299 7.63993C19.692 7.55068 19.6377 7.46929 19.5699 7.39993L16.6399 4.46993C16.453 4.26928 16.1714 4.18668 15.9057 4.25454C15.6399 4.32241 15.4324 4.52991 15.3646 4.79564C15.2967 5.06137 15.3793 5.34296 15.5799 5.52993L17.2299 7.17993H10.1399C7.26806 7.17993 4.93994 9.50805 4.93994 12.3799V14.6599C4.95015 17.4319 7.16857 19.6903 9.93994 19.7499H17.1199C17.3232 19.7553 17.5202 19.679 17.6668 19.538C17.8134 19.3971 17.8973 19.2033 17.8999 18.9999C17.9 18.5896 17.5702 18.2554 17.1599 18.2499H9.99994C8.00121 18.1903 6.41363 16.5495 6.41994 14.5499V12.3799C6.41994 10.3365 8.07649 8.67993 10.1199 8.67993H17.2099L15.5599 10.3299C15.2729 10.6282 15.2819 11.1027 15.5799 11.3899Z" fill="black"/>
</svg>
