<svg width="24" height="24" viewBox="0 0 24 24" fill="none" xmlns="http://www.w3.org/2000/svg">
<path d="M16.7801 17.8501C16.9234 17.9853 17.1131 18.0605 17.3101 18.0601C17.5077 18.0637 17.6986 17.9881 17.8401 17.8501C17.9836 17.7091 18.0645 17.5163 18.0645 17.3151C18.0645 17.1139 17.9836 16.9211 17.8401 16.7801L8.48993 7.42993H16.6301C17.0443 7.42993 17.3801 7.09415 17.3801 6.67993C17.3801 6.26572 17.0443 5.92993 16.6301 5.92993H6.78422C6.68637 5.91503 6.585 5.9194 6.48583 5.94473C6.22009 6.01259 6.01259 6.22009 5.94473 6.48583C5.89947 6.66303 5.92113 6.84729 6.00008 7.00584V16.5699C5.99413 16.9674 6.3032 17.2985 6.70008 17.3199L6.69008 17.3099C7.1043 17.3099 7.44008 16.9741 7.44008 16.5599V8.50129L16.7801 17.8501Z" fill="black"/>
</svg>
