<svg width="24" height="24" viewBox="0 0 24 24" fill="none" xmlns="http://www.w3.org/2000/svg">
<path d="M17.3 17.32C16.8858 17.32 16.55 16.9843 16.55 16.57V7.44004H7.42998C7.01576 7.44004 6.67998 7.10426 6.67998 6.69004C6.67998 6.27583 7.01576 5.94004 7.42998 5.94004H17.31C17.5076 5.93645 17.6984 6.01207 17.84 6.15004C17.9831 6.293 18.0625 6.48774 18.06 6.69004V16.57C18.0628 16.7715 17.9833 16.9655 17.8398 17.107C17.6964 17.2486 17.5014 17.3255 17.3 17.32Z" fill="black"/>
<path d="M6.68998 18.06C6.49235 18.0636 6.30151 17.988 6.15998 17.85C6.01645 17.709 5.9356 17.5163 5.9356 17.315C5.9356 17.1138 6.01645 16.9211 6.15998 16.78L16.78 6.16004C16.9669 5.95939 17.2485 5.8768 17.5143 5.94466C17.78 6.01252 17.9875 6.22002 18.0554 6.48576C18.1232 6.75149 18.0406 7.03307 17.84 7.22004L7.21998 17.85C7.07668 17.9853 6.887 18.0604 6.68998 18.06Z" fill="black"/>
<path d="M17.3 18.07C16.4715 18.07 15.8 17.3985 15.8 16.57V8.19004H7.42998C6.60155 8.19004 5.92998 7.51847 5.92998 6.69004C5.92998 5.86162 6.60155 5.19004 7.42998 5.19004H17.32C17.7203 5.18179 18.1066 5.33717 18.3897 5.62029C18.6729 5.9034 18.8282 6.28975 18.82 6.69004V16.57C18.82 16.9714 18.6592 17.356 18.3736 17.6378C18.0879 17.9197 17.7013 18.0754 17.3 18.07Z" fill="black"/>
<path d="M6.68998 18.81C6.29329 18.8146 5.9114 18.6596 5.62998 18.38C5.34601 18.0984 5.18628 17.715 5.18628 17.315C5.18628 16.9151 5.34601 16.5317 5.62998 16.25L16.25 5.63004C16.6239 5.22874 17.1871 5.06355 17.7186 5.19927C18.25 5.335 18.665 5.75 18.8007 6.28147C18.9365 6.81293 18.7713 7.3761 18.37 7.75004L7.74998 18.38C7.46611 18.6559 7.08582 18.8102 6.68998 18.81Z" fill="black"/>
</svg>
