<svg width="24" height="24" viewBox="0 0 24 24" fill="none" xmlns="http://www.w3.org/2000/svg">
<path d="M14.68 11.9199C15.269 12.506 16.2209 12.506 16.81 11.9199L19.73 8.99992C19.8689 8.85805 19.9807 8.69199 20.06 8.50992C20.1238 8.33346 20.1576 8.14755 20.16 7.95992C20.1585 7.7722 20.1247 7.58613 20.06 7.40992C19.9833 7.22645 19.8711 7.05993 19.73 6.91992L16.81 3.93992C16.2245 3.35174 15.2731 3.3495 14.685 3.93492C14.0968 4.52034 14.0945 5.47174 14.68 6.05992L15.05 6.42992H9.77996C6.48579 6.45737 3.82984 9.13564 3.82996 12.4299V14.5999C3.83927 17.7927 6.37868 20.4029 9.56996 20.4999H17.57C18.3984 20.4999 19.07 19.8283 19.07 18.9999C19.07 18.1715 18.3984 17.4999 17.57 17.4999C17.57 17.4999 9.91996 17.4999 9.70996 17.4999C8.1176 17.4512 6.85379 16.143 6.85996 14.5499V12.3799C6.85973 10.7424 8.17266 9.40721 9.80996 9.37992H15.08L14.71 9.74992C14.4121 10.0303 14.2407 10.4195 14.2351 10.8286C14.2294 11.2376 14.39 11.6314 14.68 11.9199Z" fill="black"/>
</svg>
