<svg width="24" height="24" viewBox="0 0 24 24" fill="none" xmlns="http://www.w3.org/2000/svg">
<path d="M14.7599 4.78003H6.82994C6.41573 4.78003 6.07994 5.11582 6.07994 5.53003C6.07994 5.94424 6.41573 6.28003 6.82994 6.28003H14.7099C16.7188 6.33451 18.3125 7.99053 18.2899 10V12.17C18.2899 14.2135 16.6334 15.87 14.5899 15.87H7.49994L9.14994 14.2C9.29289 14.0607 9.37351 13.8696 9.37351 13.67C9.37351 13.4704 9.29289 13.2793 9.14994 13.14C8.85713 12.8476 8.38276 12.8476 8.08994 13.14L5.15994 16.07C5.09215 16.1394 5.03789 16.2208 4.99994 16.31C4.93019 16.4971 4.93019 16.703 4.99994 16.89C5.03789 16.9793 5.09215 17.0607 5.15994 17.13L8.08994 20.06C8.22983 20.2017 8.42088 20.281 8.61994 20.28C8.81923 20.2821 9.01072 20.2026 9.14994 20.06C9.29289 19.9207 9.37351 19.7296 9.37351 19.53C9.37351 19.3304 9.29289 19.1393 9.14994 19L7.49994 17.35H14.5899C17.4618 17.35 19.7899 15.0219 19.7899 12.15V10C19.8183 7.17911 17.58 4.85628 14.7599 4.78003Z" fill="black"/>
</svg>
